<?xml version="1.0" encoding="utf-8"?>
<!-- Generator: Adobe Illustrator 23.0.1, SVG Export Plug-In . SVG Version: 6.00 Build 0)  -->
<svg version="1.1" id="Layer_1" xmlns="http://www.w3.org/2000/svg" xmlns:xlink="http://www.w3.org/1999/xlink" x="0px" y="0px"
	 viewBox="0 0 400 174.8" style="enable-background:new 0 0 400 174.8;" xml:space="preserve">
<style type="text/css">
	.st0{fill:url(#SVGID_1_);}
	.st1{fill:url(#SVGID_2_);}
	.st2{fill:url(#SVGID_3_);}
	.st3{fill:url(#SVGID_4_);}
	.st4{fill:url(#SVGID_5_);}
	.st5{fill:#FFFFFF;}
</style>
<g>
	<g>
		<g>
			
				<linearGradient id="SVGID_1_" gradientUnits="userSpaceOnUse" x1="0" y1="78.9738" x2="399.231" y2="78.9738" gradientTransform="matrix(1 0 0 -1 0 176.3358)">
				<stop  offset="0" style="stop-color:#9D3ADF"/>
				<stop  offset="0.2061" style="stop-color:#8542D8"/>
				<stop  offset="0.6385" style="stop-color:#4857C6"/>
				<stop  offset="1" style="stop-color:#106AB6"/>
			</linearGradient>
			<path class="st0" d="M388.6,61.3h-9.5V39.8c-0.6,1-1.3,1.9-2.1,2.7c-5.7,5.7-14.9,5.7-20.5,0c-5.7-5.7-5.7-14.9,0-20.5
				c0.9-0.9,1.8-1.5,2.7-2.1H7.4c-4.1,0-7.4,3.3-7.4,7.4v125.9c0,3.3,4,5,6.3,2.6l22.9-22.9H35v11.7c0,5.9,4.7,10.6,10.6,10.6h319.9
				l21.9,17.6c1.3,1.3,3.1,2,4.9,2c0.9,0,1.8-0.2,2.6-0.5c2.6-1.1,4.3-3.6,4.3-6.4v-96C399.2,66.1,394.5,61.3,388.6,61.3z
				 M392.8,167.9c0,0.1,0,0.3-0.3,0.5c-0.3,0.1-0.5,0-0.5-0.1l-22.9-18.6c-0.6-0.6-1.4-0.9-2.3-0.9H45.6c-2.3,0-4.2-1.9-4.2-4.2
				v-11.7h330.3c4.1,0,7.4-3.3,7.4-7.4V67.8h9.5c2.3,0,4.2,1.9,4.2,4.2L392.8,167.9L392.8,167.9z"/>
			
				<linearGradient id="SVGID_2_" gradientUnits="userSpaceOnUse" x1="367.5317" y1="152.3478" x2="384.4294" y2="152.3478" gradientTransform="matrix(1 0 0 -1 0 176.3358)">
				<stop  offset="0" style="stop-color:#9D3ADF"/>
				<stop  offset="0.2061" style="stop-color:#8542D8"/>
				<stop  offset="0.6385" style="stop-color:#4857C6"/>
				<stop  offset="1" style="stop-color:#106AB6"/>
			</linearGradient>
			<path class="st1" d="M369.2,15.6c-0.9,0-1.7,0.8-1.7,1.7c0,0.9,0.8,1.7,1.7,1.7c3.2,0,6.2,1.2,8.4,3.5s3.5,5.2,3.5,8.4
				c0,0.5,0.2,0.9,0.5,1.2c0.3,0.3,0.7,0.5,1.2,0.5c0.9,0,1.7-0.8,1.7-1.7c0-4.1-1.6-7.9-4.4-10.8C377.1,17.1,373.3,15.6,369.2,15.6
				z"/>
			
				<linearGradient id="SVGID_3_" gradientUnits="userSpaceOnUse" x1="367.5317" y1="156.3208" x2="392.4383" y2="156.3208" gradientTransform="matrix(1 0 0 -1 0 176.3358)">
				<stop  offset="0" style="stop-color:#9D3ADF"/>
				<stop  offset="0.2061" style="stop-color:#8542D8"/>
				<stop  offset="0.6385" style="stop-color:#4857C6"/>
				<stop  offset="1" style="stop-color:#106AB6"/>
			</linearGradient>
			<path class="st2" d="M389.6,32c0.3,0.3,0.7,0.5,1.2,0.5c0.9,0,1.7-0.8,1.7-1.7c0-12.8-10.4-23.2-23.2-23.2
				c-0.9,0-1.7,0.8-1.7,1.7c0,0.9,0.8,1.7,1.7,1.7c10.9,0,19.9,8.9,19.9,19.9C389.1,31.2,389.3,31.7,389.6,32z"/>
			
				<linearGradient id="SVGID_4_" gradientUnits="userSpaceOnUse" x1="367.5317" y1="160.1017" x2="400" y2="160.1017" gradientTransform="matrix(1 0 0 -1 0 176.3358)">
				<stop  offset="0" style="stop-color:#9D3ADF"/>
				<stop  offset="0.2061" style="stop-color:#8542D8"/>
				<stop  offset="0.6385" style="stop-color:#4857C6"/>
				<stop  offset="1" style="stop-color:#106AB6"/>
			</linearGradient>
			<path class="st3" d="M391,9c-5.8-5.8-13.5-9-21.8-9c-0.9,0-1.7,0.8-1.7,1.7c0,0.9,0.8,1.7,1.7,1.7c15.1,0,27.4,12.3,27.4,27.4
				c0,0.5,0.2,0.9,0.5,1.2c0.3,0.3,0.7,0.5,1.2,0.5c0.9,0,1.7-0.8,1.7-1.7C400,22.6,396.8,14.8,391,9z"/>
			
				<linearGradient id="SVGID_5_" gradientUnits="userSpaceOnUse" x1="358.902" y1="143.8248" x2="375.0906" y2="143.8248" gradientTransform="matrix(1 0 0 -1 0 176.3358)">
				<stop  offset="0" style="stop-color:#9D3ADF"/>
				<stop  offset="0.2061" style="stop-color:#8542D8"/>
				<stop  offset="0.6385" style="stop-color:#4857C6"/>
				<stop  offset="1" style="stop-color:#106AB6"/>
			</linearGradient>
			<circle class="st4" cx="367" cy="32.5" r="8.1"/>
		</g>
	</g>
	<g>
		<g>
			<path class="st5" d="M50.1,78.1H22.7v-1.6c0.9,0,1.6-0.1,2.1-0.3c0.6-0.1,1-0.3,1.3-0.7c0.3-0.3,0.5-0.8,0.6-1.4
				c0.1-0.6,0.2-1.3,0.2-2.3V53.6c0-0.9,0-1.7-0.1-2.3c-0.1-0.6-0.3-1-0.6-1.4c-0.3-0.3-0.6-0.6-1.2-0.7c-0.5-0.1-1.2-0.2-1.9-0.3
				v-1.6h13.7V49c-0.9,0-1.6,0.1-2.2,0.3c-0.6,0.1-0.9,0.4-1.2,0.7s-0.5,0.8-0.6,1.5c-0.1,0.6-0.1,1.4-0.1,2.4v16.7
				c0,1.1,0.1,2,0.3,2.7c0.2,0.7,0.6,1.2,1.2,1.6c0.6,0.4,1.3,0.6,2.2,0.8c0.9,0.1,2.1,0.2,3.5,0.2c1.5,0,2.8-0.1,3.8-0.3
				c1-0.2,1.9-0.6,2.6-1.1c0.7-0.5,1.3-1.2,1.7-2.1c0.4-0.9,0.8-2,1.1-3.4h1.6L50.1,78.1z"/>
			<path class="st5" d="M69.6,63.6c0-1.1,0-1.9-0.1-2.5c0-0.6-0.2-1.1-0.4-1.5c-0.3-0.3-0.6-0.6-1.1-0.7c-0.5-0.1-1.1-0.2-1.9-0.3
				V57h9v12c0,1.6,0,2.9,0,3.8c0,0.9,0.1,1.6,0.2,2.1c0.1,0.3,0.2,0.6,0.3,0.8c0.1,0.2,0.3,0.3,0.5,0.5c0.3,0.1,0.6,0.2,1,0.3
				s0.9,0,1.6,0v1.5l-7.9,0.5L70.4,75h-0.2c-0.7,1.1-1.7,2-2.9,2.6c-1.2,0.6-2.6,0.9-4.2,0.9c-2.8,0-5-1-6.5-3
				c-1.2-1.5-1.7-3.7-1.7-6.6v-5.4c0-1.1,0-1.9-0.1-2.6c0-0.6-0.2-1.1-0.4-1.4c-0.2-0.3-0.6-0.6-1-0.6c-0.5-0.1-1.1-0.2-1.9-0.3
				v-1.6h8.9v11.2c0,2.7,0.3,4.6,1,5.8c0.6,1.2,1.7,1.8,3.2,1.8c1.6,0,2.8-0.7,3.6-2.1c0.9-1.4,1.3-3.4,1.3-6.1L69.6,63.6L69.6,63.6
				z"/>
			<path class="st5" d="M95.4,62.1c0.6-0.7,0.9-1.2,1.1-1.5c0.2-0.3,0.3-0.6,0.3-0.9c0-0.4-0.2-0.6-0.5-0.8
				c-0.3-0.2-0.8-0.3-1.5-0.3v-1.6h9.1v1.6c-0.5,0-0.9,0.1-1.4,0.2c-0.4,0.1-0.8,0.2-1.2,0.5c-0.4,0.2-0.8,0.6-1.2,0.9
				c-0.4,0.4-0.9,0.9-1.5,1.5l-4.1,4.7l6.3,8.1c0.6,0.8,1.2,1.3,1.8,1.6s1.3,0.4,2.2,0.4v1.6H92.2v-1.6c0.8,0,1.3-0.1,1.6-0.2
				c0.3-0.1,0.5-0.4,0.5-0.8c0-0.3-0.1-0.6-0.3-0.9c-0.2-0.3-0.5-0.8-0.9-1.3l-2.3-3.2l-1.8,2.1c-0.5,0.6-0.8,1-1.1,1.4
				c-0.3,0.3-0.5,0.6-0.6,0.9c-0.1,0.2-0.2,0.4-0.3,0.5s0,0.2,0,0.3c0,0.5,0.2,0.8,0.6,0.9c0.4,0.2,1,0.3,1.8,0.3v1.6h-10v-1.6
				c0.9,0,1.7-0.1,2.5-0.4c0.8-0.3,1.4-0.6,1.9-1.2l5.5-6.5l-6.6-8.4c-0.5-0.6-0.9-1-1.3-1.2c-0.4-0.2-0.9-0.3-1.6-0.3v-1.6H92v1.6
				c-1.4,0-2,0.4-2,1.1c0,0.3,0.1,0.6,0.4,1l2.8,4L95.4,62.1z"/>
			<path class="st5" d="M138.2,70.7l9.2-23.2H159v1.6c-0.9,0-1.6,0.1-2.1,0.3c-0.6,0.2-0.9,0.5-1.2,0.9c-0.3,0.5-0.5,1.1-0.6,1.8
				c-0.1,0.8-0.1,1.8-0.1,2.9v15.4c0,1.3,0,2.4,0.2,3.2c0.1,0.8,0.3,1.4,0.6,1.8c0.3,0.4,0.8,0.7,1.4,0.9c0.6,0.1,1.4,0.2,2.3,0.3
				v1.6h-15v-1.6c1,0,1.8-0.1,2.3-0.3c0.6-0.1,1.1-0.4,1.4-0.8c0.3-0.4,0.6-0.9,0.6-1.7c0.1-0.7,0.2-1.7,0.2-2.9V52.3h-0.2
				l-10.7,26.3h-2.9l-11.1-26.3H124v18.3c0,1.3,0,2.4,0.2,3.2c0.1,0.8,0.3,1.4,0.6,1.8c0.3,0.4,0.8,0.7,1.4,0.9
				c0.6,0.1,1.4,0.2,2.3,0.3v1.6h-12.3v-1.6c1,0,1.8-0.1,2.4-0.3c0.6-0.1,1.1-0.4,1.4-0.8c0.3-0.4,0.6-0.9,0.6-1.7
				c0.1-0.7,0.2-1.7,0.2-2.9V55c0-1.1,0-2.1-0.2-2.8c-0.1-0.7-0.3-1.3-0.6-1.8c-0.3-0.4-0.7-0.7-1.2-0.9c-0.6-0.2-1.3-0.3-2.2-0.3
				v-1.6h12l9.3,23.2h0.2V70.7z"/>
			<path class="st5" d="M174.3,64.7V63c0-1.5-0.3-2.6-0.8-3.4c-0.6-0.7-1.4-1.1-2.5-1.1c-0.8,0-1.4,0.2-1.8,0.6
				c-0.4,0.4-0.8,1.1-1.1,2.1c-0.3,0.7-0.6,1.2-1,1.5c-0.4,0.4-1,0.6-1.8,0.6c-0.7,0-1.3-0.2-1.7-0.7c-0.4-0.5-0.6-1.1-0.6-1.9
				c0-1.3,0.7-2.3,2.1-3c1.4-0.7,3.5-1.1,6.3-1.1c2.9,0,5.1,0.6,6.4,1.6c1.3,1.1,1.9,2.9,1.9,5.4v8.7c0,2.3,0.5,3.4,1.4,3.4
				c0.5,0,1-0.2,1.4-0.5l0.6,1.2c-0.4,0.7-0.9,1.2-1.7,1.6s-1.7,0.6-2.6,0.6c-1.2,0-2.1-0.4-2.8-1.1c-0.6-0.7-0.9-1.8-0.9-3.2h-0.2
				c-0.8,1.4-1.8,2.4-3,3.2c-1.2,0.7-2.6,1.1-4.2,1.1c-1.7,0-3-0.5-4-1.4c-1-0.9-1.5-2.2-1.5-3.7c0-1.2,0.5-2.3,1.5-3.3
				c1-1,2.8-2,5.2-3L174.3,64.7z M174.3,66.8c-2.2,1-3.9,1.9-5,2.8c-1.1,0.9-1.7,1.8-1.7,2.7c0,0.8,0.2,1.4,0.6,1.8s0.9,0.7,1.6,0.7
				s1.2-0.1,1.8-0.3c0.6-0.2,1-0.5,1.4-0.9s0.7-0.8,0.9-1.3c0.2-0.5,0.3-1.1,0.3-1.7L174.3,66.8L174.3,66.8z"/>
			<path class="st5" d="M186.8,78.1h-1.2v-7.2h1.7c0.5,1.9,1.1,3.3,2,4.2c0.9,0.9,2,1.3,3.3,1.3c1,0,1.8-0.2,2.3-0.6
				c0.6-0.4,0.8-1,0.8-1.7c0-0.7-0.3-1.5-1-2.2c-0.7-0.7-1.8-1.5-3.2-2.3c-2-1.1-3.5-2.2-4.3-3.2c-0.9-1.1-1.3-2.3-1.3-3.6
				c0-0.9,0.2-1.7,0.5-2.4c0.3-0.8,0.8-1.4,1.4-2c0.6-0.6,1.2-1,2.1-1.3c0.8-0.3,1.7-0.5,2.6-0.5c0.8,0,1.6,0.1,2.4,0.3
				c0.8,0.3,1.5,0.6,2.1,1l0.7-0.9h1v6h-1.6c-0.6-1.5-1.2-2.6-1.9-3.2s-1.5-1-2.3-1c-0.7,0-1.3,0.2-1.8,0.6
				c-0.4,0.4-0.6,0.9-0.6,1.6c0,0.7,0.3,1.5,1,2.1c0.6,0.7,1.7,1.4,3.2,2.2c1.1,0.6,2,1.2,2.7,1.7c0.8,0.6,1.4,1.1,1.9,1.7
				c0.5,0.6,0.8,1.2,1.1,1.8c0.2,0.6,0.3,1.3,0.3,2c0,0.9-0.2,1.8-0.5,2.5c-0.3,0.7-0.9,1.4-1.5,1.9c-0.6,0.5-1.4,0.9-2.3,1.2
				s-1.9,0.4-2.9,0.4c-1.2,0-2.2-0.2-3.2-0.5c-1-0.3-1.8-0.8-2.4-1.3L186.8,78.1z"/>
			<path class="st5" d="M202.9,59.3v-1.8c1.6-0.5,2.9-1.2,4-2.1c1.1-0.9,1.9-2,2.4-3.2h2v4.8h4.6v2.2h-4.6v12.2
				c0,1.6,0.2,2.8,0.6,3.5c0.3,0.7,0.9,1,1.8,1c1,0,1.8-0.5,2.3-1.4l0.9,1.2c-0.7,1.9-2.5,2.8-5.3,2.8c-1.8,0-3.2-0.4-4.3-1.3
				c-1-0.9-1.5-2.1-1.5-3.6V59.3H202.9z"/>
			<path class="st5" d="M238.6,74.4c-2.4,2.7-5.4,4.1-9,4.1c-1.6,0-3.1-0.3-4.5-0.8c-1.3-0.5-2.5-1.2-3.4-2.2
				c-0.9-0.9-1.7-2.1-2.2-3.4c-0.5-1.3-0.8-2.7-0.8-4.3c0-1.6,0.3-3.2,0.9-4.5c0.6-1.4,1.3-2.6,2.3-3.5c1-1,2.2-1.8,3.6-2.3
				c1.4-0.6,2.9-0.9,4.6-0.9c2.8,0,5,0.8,6.6,2.3c1.6,1.5,2.3,3.6,2.3,6.4c0,0.4-0.1,0.7-0.2,0.8s-0.5,0.1-1.1,0.1h-12.8
				c-0.1,0.3-0.2,0.7-0.2,1.3c0,2.6,0.6,4.7,1.7,6.2c1.1,1.5,2.6,2.3,4.6,2.3c1.1,0,2.2-0.3,3.3-0.8c1.1-0.5,2.2-1.2,3.2-2.1
				L238.6,74.4z M230.9,64c1.1,0,1.8,0,2.1-0.2c0.3-0.1,0.5-0.4,0.5-0.9c0-1.2-0.3-2.1-1-2.9c-0.7-0.7-1.5-1.1-2.5-1.1
				c-1.2,0-2.1,0.5-3,1.4s-1.5,2.1-1.7,3.6H230.9z"/>
			<path class="st5" d="M250.6,71.9c0,1,0,1.8,0.1,2.4c0.1,0.6,0.3,1.1,0.6,1.4c0.3,0.3,0.7,0.5,1.3,0.6s1.3,0.1,2.2,0.1v1.6h-13.3
				v-1.6c0.8,0,1.4-0.1,1.9-0.3c0.5-0.1,0.9-0.3,1.1-0.6c0.3-0.3,0.4-0.8,0.5-1.4c0.1-0.6,0.1-1.4,0.1-2.4v-4.9c0-1.6,0-2.9-0.1-3.9
				s-0.3-1.8-0.5-2.3c-0.3-0.5-0.6-0.9-1.2-1.1c-0.5-0.2-1.2-0.3-1.9-0.3V58l7.9-1.5l0.6,4.6h0.2c0.7-1.4,1.7-2.5,2.8-3.3
				c1.2-0.8,2.4-1.2,3.7-1.2c1,0,1.8,0.3,2.5,0.8c0.6,0.5,0.9,1.2,0.9,1.9c0,0.9-0.3,1.6-0.7,2.1c-0.5,0.6-1.2,0.9-2,0.9
				c-0.4,0-0.8-0.1-1.1-0.3c-0.3-0.2-0.6-0.3-0.9-0.6c-0.3-0.2-0.5-0.4-0.8-0.6c-0.3-0.2-0.5-0.3-0.8-0.3c-0.5,0-1,0.3-1.4,1
				c-0.5,0.7-0.8,1.5-1.1,2.6c-0.2,0.8-0.4,1.7-0.5,2.7c-0.1,1-0.2,2-0.2,2.9V71.9z"/>
			<path class="st5" d="M280.9,74.8c-1,1.1-2.3,2-3.8,2.6c-1.5,0.6-3.1,0.9-4.9,0.9c-1.6,0-3.1-0.3-4.4-0.8
				c-1.3-0.5-2.5-1.2-3.4-2.2c-0.9-0.9-1.7-2.1-2.2-3.4c-0.5-1.3-0.8-2.8-0.8-4.4c0-1.6,0.3-3.2,0.9-4.5c0.6-1.3,1.3-2.5,2.3-3.5
				c1-1,2.2-1.7,3.6-2.3c1.4-0.5,2.9-0.8,4.7-0.8c1.2,0,2.3,0.1,3.3,0.3c1,0.3,1.9,0.6,2.6,1c0.7,0.4,1.3,0.9,1.7,1.5
				c0.4,0.6,0.6,1.2,0.6,1.8c0,0.8-0.2,1.4-0.6,1.8c-0.4,0.5-1,0.7-1.8,0.7c-0.6,0-1.2-0.2-1.6-0.5c-0.5-0.3-0.9-0.9-1.4-1.5
				c-0.4-0.6-0.7-1.2-1-1.5c-0.3-0.4-0.6-0.6-0.8-0.9c-0.2-0.2-0.5-0.3-0.7-0.4c-0.3-0.1-0.5-0.1-0.9-0.1c-1.5,0-2.7,0.7-3.6,2.1
				c-0.9,1.5-1.3,3.4-1.3,6c0,2.8,0.5,4.9,1.5,6.4c1,1.5,2.5,2.2,4.4,2.2c1.1,0,2.2-0.2,3.2-0.6c1.1-0.4,2.1-1,3.1-1.8L280.9,74.8z"
				/>
			<path class="st5" d="M292.2,71.6c0,1.1,0,1.9,0.1,2.6c0.1,0.6,0.3,1.1,0.5,1.5c0.3,0.3,0.6,0.6,1,0.7c0.5,0.1,1.1,0.2,1.8,0.2
				v1.6h-12.5v-1.6c0.7,0,1.3-0.1,1.8-0.3c0.5-0.1,0.8-0.4,1.1-0.7c0.3-0.3,0.4-0.8,0.5-1.4c0.1-0.6,0.1-1.4,0.1-2.3V55.4
				c0-1.5,0-2.8-0.1-3.8c0-1-0.1-1.7-0.2-2.1c-0.1-0.6-0.4-1.1-0.9-1.3c-0.5-0.2-1.3-0.3-2.5-0.3v-1.4l9.2-1.5L292.2,71.6
				L292.2,71.6z"/>
			<path class="st5" d="M310.2,64.7V63c0-1.5-0.3-2.6-0.8-3.4c-0.6-0.7-1.4-1.1-2.5-1.1c-0.8,0-1.4,0.2-1.8,0.6
				c-0.4,0.4-0.8,1.1-1.1,2.1c-0.3,0.7-0.6,1.2-1,1.5c-0.4,0.4-1,0.6-1.8,0.6c-0.7,0-1.3-0.2-1.7-0.7c-0.4-0.5-0.6-1.1-0.6-1.9
				c0-1.3,0.7-2.3,2.1-3c1.4-0.7,3.5-1.1,6.3-1.1c2.9,0,5.1,0.6,6.4,1.6c1.3,1.1,1.9,2.9,1.9,5.4v8.7c0,2.3,0.5,3.4,1.4,3.4
				c0.5,0,1-0.2,1.4-0.5l0.6,1.2c-0.4,0.7-0.9,1.2-1.7,1.6s-1.7,0.6-2.6,0.6c-1.2,0-2.1-0.4-2.8-1.1c-0.6-0.7-0.9-1.8-0.9-3.2h-0.2
				c-0.8,1.4-1.8,2.4-3,3.2c-1.2,0.7-2.6,1.1-4.2,1.1c-1.7,0-3-0.5-4-1.4c-1-0.9-1.5-2.2-1.5-3.7c0-1.2,0.5-2.3,1.5-3.3
				c1-1,2.8-2,5.2-3L310.2,64.7z M310.2,66.8c-2.2,1-3.9,1.9-5,2.8c-1.1,0.9-1.7,1.8-1.7,2.7c0,0.8,0.2,1.4,0.6,1.8
				c0.4,0.5,0.9,0.7,1.6,0.7c0.6,0,1.2-0.1,1.8-0.3c0.6-0.2,1-0.5,1.4-0.9s0.7-0.8,0.9-1.3c0.2-0.5,0.3-1.1,0.3-1.7L310.2,66.8
				L310.2,66.8z"/>
			<path class="st5" d="M322.7,78.1h-1.2v-7.2h1.7c0.5,1.9,1.1,3.3,2,4.2c0.9,0.9,2,1.3,3.3,1.3c1,0,1.8-0.2,2.3-0.6
				c0.6-0.4,0.8-1,0.8-1.7c0-0.7-0.3-1.5-1-2.2c-0.7-0.7-1.8-1.5-3.2-2.3c-2-1.1-3.5-2.2-4.3-3.2c-0.9-1.1-1.3-2.3-1.3-3.6
				c0-0.9,0.2-1.7,0.5-2.4c0.3-0.8,0.8-1.4,1.4-2c0.6-0.6,1.2-1,2.1-1.3c0.8-0.3,1.7-0.5,2.6-0.5c0.8,0,1.6,0.1,2.4,0.3
				c0.8,0.3,1.5,0.6,2.1,1l0.7-0.9h1v6h-1.5c-0.6-1.5-1.2-2.6-1.9-3.2c-0.6-0.6-1.5-1-2.3-1c-0.7,0-1.3,0.2-1.8,0.6
				c-0.4,0.4-0.6,0.9-0.6,1.6c0,0.7,0.3,1.5,1,2.1c0.6,0.7,1.7,1.4,3.2,2.2c1.1,0.6,2,1.2,2.7,1.7s1.4,1.1,1.9,1.7
				c0.5,0.6,0.8,1.2,1.1,1.8c0.2,0.6,0.3,1.3,0.3,2c0,0.9-0.2,1.8-0.5,2.5c-0.3,0.7-0.9,1.4-1.5,1.9c-0.6,0.5-1.4,0.9-2.3,1.2
				c-0.9,0.3-1.9,0.4-2.9,0.4c-1.2,0-2.2-0.2-3.2-0.5c-1-0.3-1.8-0.8-2.4-1.3L322.7,78.1z"/>
			<path class="st5" d="M341.2,78.1h-1.2v-7.2h1.7c0.5,1.9,1.1,3.3,2,4.2c0.9,0.9,2,1.3,3.3,1.3c1,0,1.8-0.2,2.3-0.6
				c0.6-0.4,0.8-1,0.8-1.7c0-0.7-0.3-1.5-1-2.2c-0.7-0.7-1.8-1.5-3.2-2.3c-2-1.1-3.5-2.2-4.3-3.2c-0.9-1.1-1.3-2.3-1.3-3.6
				c0-0.9,0.2-1.7,0.5-2.4c0.3-0.8,0.8-1.4,1.4-2c0.6-0.6,1.2-1,2.1-1.3c0.8-0.3,1.7-0.5,2.6-0.5c0.8,0,1.6,0.1,2.4,0.3
				c0.8,0.3,1.5,0.6,2.1,1l0.7-0.9h1v6h-1.5c-0.6-1.5-1.2-2.6-1.9-3.2c-0.6-0.6-1.5-1-2.3-1c-0.7,0-1.3,0.2-1.8,0.6
				c-0.4,0.4-0.6,0.9-0.6,1.6c0,0.7,0.3,1.5,1,2.1c0.6,0.7,1.7,1.4,3.2,2.2c1.1,0.6,2,1.2,2.7,1.7c0.8,0.6,1.4,1.1,1.9,1.7
				c0.5,0.6,0.8,1.2,1.1,1.8c0.2,0.6,0.3,1.3,0.3,2c0,0.9-0.2,1.8-0.5,2.5c-0.3,0.7-0.9,1.4-1.5,1.9c-0.6,0.5-1.4,0.9-2.3,1.2
				s-1.9,0.4-2.9,0.4c-1.2,0-2.2-0.2-3.2-0.5c-1-0.3-1.8-0.8-2.4-1.3L341.2,78.1z"/>
		</g>
		<g>
			<path class="st5" d="M48.2,93c0.6,0,1.2,0.1,1.7,0.3c0.5,0.2,0.9,0.5,1.3,0.9c0.4,0.4,0.6,0.8,0.9,1.3l-1.4,0.7
				c-0.2-0.6-0.5-1.1-0.9-1.4c-0.4-0.3-0.9-0.5-1.6-0.5s-1.2,0.1-1.6,0.4c-0.5,0.3-0.8,0.7-1,1.2c-0.3,0.5-0.3,1.2-0.3,1.9
				c0,0.7,0.1,1.4,0.3,1.9c0.3,0.6,0.6,0.9,1,1.2c0.5,0.3,1,0.4,1.6,0.4c0.5,0,0.9-0.1,1.3-0.2c0.4-0.1,0.6-0.4,0.9-0.6
				c0.2-0.3,0.4-0.6,0.5-1.1l1.4,0.5c-0.2,0.6-0.5,1.1-0.9,1.5c-0.4,0.4-0.8,0.7-1.3,0.9c-0.5,0.2-1.1,0.3-1.8,0.3
				c-0.9,0-1.7-0.2-2.3-0.6s-1.2-0.9-1.6-1.7c-0.4-0.7-0.6-1.6-0.6-2.6s0.2-1.9,0.6-2.6c0.4-0.7,0.9-1.3,1.6-1.7
				C46.6,93.1,47.3,93,48.2,93z"/>
			<path class="st5" d="M60.2,102.7c-0.6,0-1.2-0.1-1.7-0.3c-0.5-0.2-1-0.6-1.3-1.1c-0.3-0.5-0.5-1.2-0.5-2v-6.2h1.5v5.8
				c0,0.9,0.2,1.6,0.6,2c0.4,0.3,1,0.6,1.8,0.6c0.3,0,0.7,0,1-0.2c0.3-0.1,0.6-0.3,0.9-0.6c0.3-0.3,0.5-0.6,0.6-1
				c0.2-0.4,0.3-0.9,0.3-1.4v-5.1h1.5v9.4h-1.3l-0.1-1.4c-0.3,0.6-0.8,1-1.3,1.2S60.9,102.7,60.2,102.7z"/>
			<path class="st5" d="M70.2,102.5v-9.4h1.2l0.2,1.5c0.3-0.6,0.6-1,1.2-1.3c0.5-0.3,1.1-0.4,1.8-0.4c0.2,0,0.3,0,0.6,0
				c0.2,0,0.3,0.1,0.5,0.2l-0.3,1.4c-0.1,0-0.3-0.1-0.5-0.1c-0.2,0-0.4,0-0.7,0c-0.4,0-0.8,0.1-1.2,0.3c-0.4,0.2-0.7,0.6-1,1
				c-0.3,0.5-0.4,1-0.4,1.8v5H70.2z"/>
			<path class="st5" d="M85,96.5c0-0.7-0.2-1.2-0.6-1.6c-0.4-0.4-0.9-0.6-1.6-0.6c-0.6,0-1.2,0.1-1.7,0.4c-0.5,0.3-0.8,0.7-1,1.4
				l-1.2-0.8c0.3-0.7,0.7-1.3,1.4-1.7c0.7-0.4,1.5-0.6,2.5-0.6c0.7,0,1.3,0.1,1.8,0.3c0.6,0.2,1,0.6,1.3,1.1
				c0.3,0.5,0.5,1.1,0.5,1.8v4.5c0,0.5,0.3,0.7,0.7,0.7c0.3,0,0.5,0,0.7-0.1l-0.1,1.2c-0.3,0.1-0.6,0.2-1,0.2c-0.4,0-0.7-0.1-1-0.2
				c-0.3-0.1-0.5-0.3-0.7-0.6c-0.2-0.3-0.3-0.6-0.3-1.1v-0.2l0.4,0c-0.2,0.5-0.4,0.9-0.8,1.2c-0.4,0.3-0.8,0.5-1.2,0.7
				c-0.5,0.1-0.9,0.2-1.3,0.2c-0.6,0-1.1-0.1-1.5-0.3c-0.5-0.2-0.9-0.5-1.2-0.9c-0.3-0.4-0.4-0.9-0.4-1.4c0-0.7,0.2-1.3,0.7-1.8
				c0.5-0.5,1.1-0.8,2-0.9l3.7-0.7V98l-3,0.6c-0.6,0.1-1.1,0.3-1.4,0.5s-0.5,0.6-0.5,0.9c0,0.4,0.2,0.7,0.5,0.9
				c0.3,0.3,0.7,0.4,1.3,0.4c0.4,0,0.7,0,1-0.1c0.3-0.1,0.6-0.3,0.9-0.4c0.3-0.2,0.5-0.4,0.6-0.7c0.2-0.3,0.2-0.6,0.2-1L85,96.5
				L85,96.5z"/>
			<path class="st5" d="M97.3,93.1v1.3h-6.8v-1.3H97.3z M93.9,90.5v9.5c0,0.5,0.1,0.8,0.4,1c0.3,0.2,0.6,0.3,1,0.3
				c0.4,0,0.7,0,0.9-0.2c0.3-0.1,0.5-0.3,0.7-0.5l0.5,1.2c-0.3,0.3-0.6,0.5-1,0.6s-0.9,0.2-1.4,0.2c-0.5,0-0.9-0.1-1.3-0.3
				c-0.4-0.2-0.7-0.4-1-0.8c-0.3-0.4-0.4-0.9-0.4-1.5v-9.3L93.9,90.5z"/>
			<path class="st5" d="M105.3,102.7c-0.9,0-1.7-0.2-2.4-0.6c-0.7-0.4-1.2-0.9-1.6-1.7c-0.4-0.7-0.6-1.6-0.6-2.6s0.2-1.9,0.6-2.6
				s0.9-1.3,1.6-1.7c0.7-0.4,1.5-0.6,2.3-0.6c0.9,0,1.6,0.2,2.3,0.6c0.6,0.4,1.1,0.9,1.4,1.5c0.3,0.6,0.5,1.4,0.5,2.2
				c0,0.2,0,0.4,0,0.6s0,0.3,0,0.5h-7.6V97h6.9l-0.8,0.2c0-0.9-0.3-1.6-0.7-2.1c-0.5-0.5-1.2-0.7-2-0.7c-0.6,0-1.2,0.1-1.6,0.4
				c-0.4,0.3-0.8,0.7-1,1.2c-0.3,0.5-0.4,1.2-0.4,1.9c0,0.7,0.1,1.4,0.4,1.9c0.3,0.6,0.6,0.9,1.1,1.2c0.5,0.3,1,0.4,1.7,0.4
				c0.7,0,1.2-0.1,1.7-0.4c0.4-0.3,0.8-0.6,1-1.1l1.2,0.7c-0.3,0.4-0.6,0.8-0.9,1.1c-0.3,0.3-0.8,0.6-1.3,0.7
				C106.5,102.6,105.9,102.7,105.3,102.7z"/>
			<path class="st5" d="M117.8,102.7c-0.8,0-1.5-0.2-2.1-0.6c-0.6-0.4-1.2-0.9-1.6-1.7c-0.4-0.7-0.6-1.6-0.6-2.6
				c0-1,0.2-1.9,0.6-2.6c0.4-0.7,0.9-1.3,1.6-1.7c0.7-0.4,1.4-0.6,2.2-0.6s1.5,0.2,2,0.6c0.6,0.4,0.9,0.9,1.2,1.6l-0.2,0.1v-6.5h1.5
				v13.7h-1.3l-0.1-2.3l0.2-0.1c-0.1,0.6-0.3,1-0.6,1.4c-0.3,0.4-0.7,0.7-1.2,0.9C118.9,102.6,118.3,102.7,117.8,102.7z M118,101.4
				c0.6,0,1.1-0.2,1.6-0.5c0.4-0.3,0.8-0.7,1-1.3s0.4-1.2,0.4-2c0-0.7-0.1-1.3-0.4-1.8c-0.3-0.5-0.6-0.9-1-1.2
				c-0.4-0.3-0.9-0.4-1.5-0.4c-0.9,0-1.7,0.3-2.2,1c-0.5,0.6-0.8,1.5-0.8,2.6c0,1.1,0.3,1.9,0.8,2.6
				C116.3,101.1,117,101.4,118,101.4z"/>
			<path class="st5" d="M147.4,93.1h1.7l-3.3,9.4h-1.5l-2.6-7.5l-2.5,7.5h-1.5l-3.3-9.4h1.7l2.3,7.6l2.6-7.6h1.5l2.6,7.6L147.4,93.1
				z"/>
			<path class="st5" d="M156.8,93c0.9,0,1.7,0.2,2.3,0.6c0.7,0.4,1.2,0.9,1.6,1.7c0.4,0.7,0.6,1.6,0.6,2.6s-0.2,1.9-0.6,2.6
				c-0.4,0.7-0.9,1.3-1.6,1.7s-1.5,0.6-2.3,0.6c-0.9,0-1.7-0.2-2.3-0.6s-1.2-0.9-1.6-1.7c-0.4-0.7-0.6-1.6-0.6-2.6s0.2-1.9,0.6-2.6
				s0.9-1.3,1.6-1.7C155.2,93.1,156,93,156.8,93z M156.8,94.2c-0.6,0-1.2,0.1-1.6,0.4c-0.5,0.3-0.8,0.7-1,1.2
				c-0.3,0.5-0.4,1.2-0.4,1.9s0.1,1.4,0.4,1.9c0.3,0.6,0.6,0.9,1,1.2c0.5,0.3,1,0.4,1.6,0.4c0.6,0,1.2-0.1,1.6-0.4
				c0.5-0.3,0.8-0.7,1-1.2c0.3-0.6,0.4-1.2,0.4-1.9c0-0.8-0.1-1.4-0.4-1.9c-0.3-0.5-0.6-0.9-1-1.2C158,94.4,157.5,94.2,156.8,94.2z"
				/>
			<path class="st5" d="M166.1,102.5v-9.4h1.2l0.2,1.5c0.3-0.6,0.6-1,1.2-1.3c0.5-0.3,1.1-0.4,1.8-0.4c0.2,0,0.3,0,0.6,0
				s0.3,0.1,0.5,0.2l-0.3,1.4c-0.1,0-0.3-0.1-0.5-0.1s-0.4,0-0.7,0c-0.4,0-0.8,0.1-1.2,0.3c-0.4,0.2-0.7,0.6-1,1
				c-0.3,0.5-0.4,1-0.4,1.8v5H166.1z"/>
			<path class="st5" d="M177.2,88.8v13.7h-1.5V88.8H177.2z M183.9,93.1l-4.1,4.1l-0.3,0.3l-3.1,3.1v-1.9l5.6-5.6L183.9,93.1
				L183.9,93.1z M180,96.4l4.1,6.1h-1.8l-3.6-5.3L180,96.4z"/>
			<path class="st5" d="M191.4,102.7c-0.9,0-1.8-0.2-2.5-0.6s-1.4-0.9-1.8-1.7l1.3-0.9c0.3,0.6,0.7,1,1.2,1.4
				c0.5,0.3,1.2,0.5,1.9,0.5c0.7,0,1.2-0.1,1.6-0.4c0.4-0.3,0.6-0.6,0.6-1c0-0.3-0.1-0.5-0.3-0.7s-0.5-0.4-1-0.5l-2.3-0.5
				c-0.9-0.2-1.6-0.5-2-0.9c-0.4-0.4-0.6-1-0.6-1.6c0-0.5,0.1-1,0.4-1.4c0.3-0.4,0.7-0.8,1.2-1c0.6-0.3,1.2-0.4,1.9-0.4
				c0.9,0,1.7,0.2,2.3,0.6c0.6,0.4,1.1,0.9,1.4,1.5l-1.2,0.8c-0.2-0.6-0.6-0.9-1-1.2s-1-0.4-1.5-0.4c-0.5,0-0.9,0-1.2,0.2
				c-0.3,0.1-0.6,0.3-0.7,0.5c-0.2,0.2-0.3,0.5-0.3,0.7c0,0.3,0.1,0.5,0.3,0.8c0.2,0.2,0.6,0.4,1.1,0.5l2.3,0.5
				c0.9,0.2,1.5,0.5,1.8,0.9c0.3,0.4,0.5,0.9,0.5,1.5c0,0.6-0.2,1.1-0.5,1.5c-0.3,0.4-0.8,0.8-1.3,1
				C192.8,102.6,192.1,102.7,191.4,102.7z"/>
			<path class="st5" d="M199.8,102.5V88.8h1.5v5.7c0.3-0.6,0.8-1,1.3-1.2c0.6-0.3,1.1-0.4,1.8-0.4c0.7,0,1.3,0.1,1.8,0.4
				c0.6,0.3,1,0.6,1.3,1.2c0.3,0.5,0.5,1.2,0.5,2v6h-1.5v-5.5c0-1-0.2-1.8-0.7-2.2c-0.4-0.4-1-0.6-1.7-0.6c-0.5,0-0.9,0.1-1.4,0.3
				s-0.8,0.6-1.1,1s-0.4,1.1-0.4,1.9v5H199.8z"/>
			<path class="st5" d="M217.2,93c0.9,0,1.7,0.2,2.3,0.6c0.7,0.4,1.2,0.9,1.6,1.7c0.4,0.7,0.6,1.6,0.6,2.6s-0.2,1.9-0.6,2.6
				c-0.4,0.7-0.9,1.3-1.6,1.7s-1.5,0.6-2.3,0.6s-1.7-0.2-2.3-0.6c-0.7-0.4-1.2-0.9-1.6-1.7c-0.4-0.7-0.6-1.6-0.6-2.6
				s0.2-1.9,0.6-2.6s0.9-1.3,1.6-1.7C215.5,93.1,216.3,93,217.2,93z M217.2,94.2c-0.6,0-1.2,0.1-1.6,0.4c-0.5,0.3-0.8,0.7-1,1.2
				c-0.3,0.5-0.4,1.2-0.4,1.9s0.1,1.4,0.4,1.9c0.3,0.6,0.6,0.9,1,1.2c0.5,0.3,1,0.4,1.6,0.4s1.2-0.1,1.6-0.4c0.5-0.3,0.8-0.7,1-1.2
				c0.3-0.6,0.4-1.2,0.4-1.9c0-0.8-0.1-1.4-0.4-1.9c-0.3-0.5-0.6-0.9-1-1.2C218.4,94.4,217.8,94.2,217.2,94.2z"/>
			<path class="st5" d="M226.5,106.5V93.1h1.3l0.1,2.3l-0.2-0.3c0.2-0.4,0.4-0.8,0.7-1.2c0.3-0.3,0.7-0.6,1.2-0.8
				c0.5-0.2,1-0.3,1.5-0.3c0.8,0,1.5,0.2,2.1,0.6c0.6,0.4,1.2,0.9,1.5,1.7c0.4,0.7,0.6,1.6,0.6,2.6c0,1-0.2,1.9-0.6,2.6
				c-0.4,0.7-0.9,1.3-1.6,1.7c-0.6,0.4-1.4,0.6-2.1,0.6s-1.5-0.2-2.1-0.6c-0.6-0.4-1-0.9-1.2-1.5l0.2-0.3v6.1L226.5,106.5
				L226.5,106.5z M230.9,101.4c0.9,0,1.7-0.3,2.2-1c0.5-0.6,0.8-1.5,0.8-2.6c0-1.1-0.3-1.9-0.8-2.6c-0.5-0.6-1.2-1-2.1-1
				c-0.6,0-1.1,0.1-1.6,0.4c-0.5,0.3-0.8,0.7-1.1,1.2c-0.3,0.5-0.4,1.2-0.4,1.9c0,0.7,0.1,1.3,0.4,1.9c0.3,0.6,0.6,0.9,1,1.2
				C229.8,101.2,230.3,101.4,230.9,101.4z"/>
			<path class="st5" d="M243.5,102.7c-0.9,0-1.8-0.2-2.5-0.6c-0.8-0.4-1.4-0.9-1.8-1.7l1.3-0.9c0.3,0.6,0.7,1,1.2,1.4
				c0.5,0.3,1.2,0.5,1.9,0.5c0.7,0,1.2-0.1,1.6-0.4c0.4-0.3,0.6-0.6,0.6-1c0-0.3-0.1-0.5-0.3-0.7c-0.2-0.2-0.5-0.4-1-0.5l-2.3-0.5
				c-0.9-0.2-1.6-0.5-2-0.9c-0.4-0.4-0.6-1-0.6-1.6c0-0.5,0.1-1,0.4-1.4s0.7-0.8,1.2-1c0.6-0.3,1.2-0.4,1.9-0.4
				c0.9,0,1.7,0.2,2.3,0.6c0.6,0.4,1.1,0.9,1.4,1.5l-1.2,0.8c-0.2-0.6-0.6-0.9-1-1.2c-0.5-0.3-1-0.4-1.5-0.4c-0.5,0-0.9,0-1.2,0.2
				c-0.3,0.1-0.6,0.3-0.7,0.5c-0.2,0.2-0.3,0.5-0.3,0.7c0,0.3,0.1,0.5,0.3,0.8c0.2,0.2,0.6,0.4,1.1,0.5l2.3,0.5
				c0.9,0.2,1.5,0.5,1.8,0.9c0.3,0.4,0.5,0.9,0.5,1.5c0,0.6-0.2,1.1-0.5,1.5c-0.3,0.4-0.8,0.8-1.3,1
				C244.9,102.6,244.2,102.7,243.5,102.7z"/>
			<path class="st5" d="M263.3,102.7c-0.8,0-1.5-0.1-2.1-0.4c-0.6-0.3-1-0.7-1.4-1.2c-0.3-0.5-0.5-1.1-0.5-1.7c0-0.4,0-0.8,0.2-1.2
				c0.1-0.4,0.3-0.7,0.5-1c0.3-0.3,0.6-0.6,1-0.9c0.4-0.3,0.9-0.6,1.5-0.8l0.8-0.4c0.5-0.3,0.9-0.5,1.2-0.7c0.3-0.2,0.6-0.5,0.7-0.8
				c0.2-0.3,0.3-0.6,0.3-1c0-0.4-0.1-0.8-0.4-1c-0.3-0.3-0.6-0.4-1.1-0.4c-0.6,0-0.9,0.1-1.2,0.4s-0.4,0.6-0.4,1
				c0,0.3,0,0.5,0.1,0.7c0,0.2,0.2,0.5,0.4,0.8c0.2,0.3,0.5,0.8,0.9,1.3c0.4,0.6,1,1.2,1.7,2.1c0.7,0.9,1.3,1.6,1.8,2.1
				c0.5,0.5,0.9,0.9,1.2,1.2s0.6,0.4,0.9,0.6c0.3,0.1,0.6,0.1,0.9,0.1l-0.4,1.1c-0.4,0-0.7,0-1-0.1c-0.3-0.1-0.7-0.3-1.1-0.6
				s-0.9-0.7-1.4-1.3s-1.2-1.4-2-2.3c-0.7-0.9-1.2-1.5-1.7-2.1c-0.5-0.6-0.8-1.1-1.1-1.5c-0.3-0.4-0.5-0.8-0.6-1.1
				c-0.1-0.3-0.2-0.7-0.2-1c0-0.5,0.1-0.9,0.3-1.3c0.2-0.4,0.6-0.8,1-1c0.5-0.3,1-0.4,1.8-0.4c0.6,0,1,0.1,1.4,0.3
				c0.4,0.2,0.7,0.5,0.9,0.9c0.2,0.4,0.3,0.8,0.3,1.3c0,0.4-0.1,0.9-0.2,1.2c-0.1,0.4-0.4,0.8-0.8,1.2c-0.4,0.4-1,0.8-1.8,1.2
				l-0.6,0.3c-0.6,0.3-1.2,0.6-1.5,0.9c-0.4,0.3-0.6,0.6-0.8,0.9c-0.2,0.3-0.2,0.7-0.2,1.2c0,0.5,0.1,0.9,0.3,1.2
				c0.3,0.3,0.6,0.6,0.9,0.8c0.4,0.2,0.9,0.3,1.4,0.3c0.7,0,1.3-0.1,1.8-0.4c0.5-0.3,0.9-0.6,1.3-1.1l0.3-0.2
				c0.3-0.5,0.6-1.1,0.8-1.8c0.2-0.6,0.3-1.4,0.2-2.2l1.3,0.1c0,0.8,0,1.6-0.3,2.3c-0.2,0.8-0.6,1.5-1,2.1l-0.3,0.4
				c-0.5,0.6-1.1,1-1.7,1.3C265,102.6,264.2,102.7,263.3,102.7z"/>
			<path class="st5" d="M282.1,102.5v-9.4h1.3l0.1,1.5c0.3-0.6,0.8-1,1.3-1.2c0.6-0.3,1.1-0.4,1.7-0.4c0.7,0,1.3,0.2,1.9,0.5
				c0.6,0.3,1,0.8,1.4,1.4c0.2-0.4,0.5-0.8,0.9-1c0.3-0.3,0.8-0.5,1.2-0.6c0.4-0.1,0.9-0.2,1.2-0.2c0.6,0,1.2,0.1,1.7,0.4
				c0.6,0.3,1,0.6,1.3,1.2s0.5,1.2,0.5,2.1v5.9h-1.5v-5.9c0-0.9-0.2-1.5-0.6-1.8s-0.9-0.6-1.6-0.6c-0.5,0-0.9,0.1-1.4,0.3
				c-0.4,0.3-0.8,0.6-1,1.1c-0.3,0.5-0.4,1-0.4,1.7v5.1h-1.5v-5.9c0-0.9-0.2-1.5-0.6-1.8c-0.4-0.4-0.9-0.6-1.6-0.6
				c-0.4,0-0.9,0.1-1.3,0.3s-0.8,0.6-1.1,1c-0.3,0.5-0.4,1.1-0.4,1.9v5H282.1z"/>
			<path class="st5" d="M305.8,93c0.9,0,1.7,0.2,2.3,0.6s1.2,0.9,1.6,1.7c0.4,0.7,0.6,1.6,0.6,2.6s-0.2,1.9-0.6,2.6
				c-0.4,0.7-0.9,1.3-1.6,1.7s-1.5,0.6-2.3,0.6c-0.9,0-1.7-0.2-2.3-0.6s-1.2-0.9-1.6-1.7c-0.4-0.7-0.6-1.6-0.6-2.6s0.2-1.9,0.6-2.6
				c0.4-0.7,0.9-1.3,1.6-1.7C304.1,93.1,304.9,93,305.8,93z M305.8,94.2c-0.6,0-1.2,0.1-1.6,0.4c-0.5,0.3-0.8,0.7-1,1.2
				c-0.3,0.5-0.4,1.2-0.4,1.9s0.1,1.4,0.4,1.9c0.3,0.6,0.6,0.9,1,1.2c0.5,0.3,1,0.4,1.6,0.4c0.6,0,1.2-0.1,1.6-0.4
				c0.5-0.3,0.8-0.7,1-1.2c0.3-0.6,0.4-1.2,0.4-1.9c0-0.8-0.1-1.4-0.4-1.9c-0.3-0.5-0.6-0.9-1-1.2C307,94.4,306.4,94.2,305.8,94.2z"
				/>
			<path class="st5" d="M315,102.5v-9.4h1.2l0.2,1.5c0.3-0.6,0.6-1,1.2-1.3c0.5-0.3,1.1-0.4,1.8-0.4c0.2,0,0.3,0,0.6,0
				c0.2,0,0.3,0.1,0.5,0.2l-0.3,1.4c-0.1,0-0.3-0.1-0.5-0.1c-0.2,0-0.4,0-0.7,0c-0.4,0-0.8,0.1-1.2,0.3c-0.4,0.2-0.7,0.6-1,1
				c-0.3,0.5-0.4,1-0.4,1.8v5H315z"/>
			<path class="st5" d="M328.2,102.7c-0.9,0-1.7-0.2-2.4-0.6c-0.7-0.4-1.2-0.9-1.6-1.7c-0.4-0.7-0.6-1.6-0.6-2.6s0.2-1.9,0.6-2.6
				c0.4-0.7,0.9-1.3,1.6-1.7c0.7-0.4,1.5-0.6,2.3-0.6c0.9,0,1.6,0.2,2.3,0.6c0.6,0.4,1.1,0.9,1.4,1.5c0.3,0.6,0.5,1.4,0.5,2.2
				c0,0.2,0,0.4,0,0.6s0,0.3,0,0.5h-7.6V97h7l-0.8,0.2c0-0.9-0.3-1.6-0.7-2.1c-0.5-0.5-1.2-0.7-2-0.7c-0.6,0-1.2,0.1-1.6,0.4
				s-0.8,0.7-1,1.2c-0.3,0.5-0.4,1.2-0.4,1.9c0,0.7,0.1,1.4,0.4,1.9c0.3,0.6,0.6,0.9,1.1,1.2c0.5,0.3,1,0.4,1.7,0.4
				c0.7,0,1.2-0.1,1.7-0.4c0.4-0.3,0.8-0.6,1-1.1l1.2,0.7c-0.3,0.4-0.6,0.8-0.9,1.1c-0.3,0.3-0.8,0.6-1.3,0.7
				C329.4,102.6,328.8,102.7,328.2,102.7z"/>
		</g>
	</g>
</g>
</svg>
