<?xml version="1.0" standalone="no"?>
<!DOCTYPE svg PUBLIC "-//W3C//DTD SVG 1.1//EN" "http://www.w3.org/Graphics/SVG/1.1/DTD/svg11.dtd">
<svg xmlns="http://www.w3.org/2000/svg">
<metadata>Generated by Fontastic.me</metadata>
<defs>
<font id="microsite" horiz-adv-x="512">
<font-face font-family="microsite" units-per-em="512" ascent="480" descent="-32"/>
<missing-glyph horiz-adv-x="512" />

<glyph glyph-name="bulb" unicode="&#97;" d="M256 512c-97 0-176-79-176-176 0-64 59-133 80-193 33-89 29-143 96-143 68 0 63 53 96 143 21 60 80 129 80 193 0 97-79 176-176 176z m41-435l-79-10c-3 8-6 18-9 31 0 0-1 0-1 0l99 12c-1-4-2-9-4-14-2-7-4-13-6-19z m-93 36c-3 10-6 20-10 31l124 0c-2-6-4-12-5-17z m52-81c-16 0-24 2-32 20l68 8c-10-26-17-28-36-28z m75 144l-150 0c-8 17-17 35-27 51-20 38-42 76-42 109 0 79 65 144 144 144 79 0 144-65 144-144 0-32-22-71-42-109-10-17-19-34-27-51z m-75 256c-53 0-96-43-96-96 0-4 4-8 8-8 4 0 8 4 8 8 0 44 36 80 80 80 4 0 8 4 8 8 0 4-4 8-8 8z"/>
<glyph glyph-name="calendar" unicode="&#98;" d="M469 464l-69 0 0 32c0 9-7 16-16 16-9 0-16-7-16-16l0-32-96 0 0 32c0 9-7 16-16 16-9 0-16-7-16-16l0-32-96 0 0 32c0 9-7 16-16 16-9 0-16-7-16-16l0-32-69 0c-24 0-43-19-43-43l0-378c0-24 19-43 43-43l426 0c24 0 43 19 43 43l0 378c0 24-19 43-43 43z m11-421c0-6-5-11-11-11l-426 0c-6 0-11 5-11 11l0 378c0 6 5 11 11 11l69 0 0-32c0-9 7-16 16-16 9 0 16 7 16 16l0 32 96 0 0-32c0-9 7-16 16-16 9 0 16 7 16 16l0 32 96 0 0-32c0-9 7-16 16-16 9 0 16 7 16 16l0 32 69 0c6 0 11-5 11-11z m-368 277l64 0 0-48-64 0z m0-80l64 0 0-48-64 0z m0-80l64 0 0-48-64 0z m112 0l64 0 0-48-64 0z m0 80l64 0 0-48-64 0z m0 80l64 0 0-48-64 0z m112-160l64 0 0-48-64 0z m0 80l64 0 0-48-64 0z m0 80l64 0 0-48-64 0z"/>
<glyph glyph-name="cloud" unicode="&#99;" d="M415 302c-7 73-68 130-143 130-58 0-107-34-130-84-7 2-14 4-22 4-40 0-72-32-72-72 0-8 2-15 4-22-31-18-52-52-52-90 0-57 47-104 104-104l0 0 288 0 0 0c66 0 120 54 120 120 0 59-42 107-97 118z m-23-206l0 0-288 0c-40 0-72 32-72 72 0 26 14 49 36 62 22 12 24 15 14 38-1 4-2 8-2 12 0 22 18 40 40 40 0 0 11 1 22-4 18-7 20 0 29 19 18 39 58 65 101 65 58 0 105-44 111-101 2-23 2-23 26-29 41-8 71-44 71-86 0-48-39-88-88-88z"/>
<glyph glyph-name="diamond" unicode="&#100;" d="M503 357l-82 81c-6 6-14 10-22 10l-286 0c-8 0-16-4-22-10l-82-81c-6-6-9-14-9-23 0-7 3-15 8-21l224-238c6-7 15-11 24-11 9 0 18 4 24 11l224 238c5 6 8 14 8 22 0 8-3 16-9 22z m-211-21l-72 0 36 29z m-23 40l43 36 33-32-41-34z m-61-30l-41 34 33 32 44-36z m88-26l-40-199-40 199z m16 0l79 0-118-196z m4 16l40 33 33-33z m15 80l57 0-31-26z m-75-30l-36 30 71 0z m-101 4l-31 26 57 0z m1-21l40-33-73 0z m44-49l39-196-118 196z m3-168l-157 168 57 0z m206 168l57 0-157-168z m2 16l-43 43 37 31 74-74z m-304 74l37-31-43-43-69 0z"/>
<glyph glyph-name="eye" unicode="&#101;" d="M511 260c0 0 0 1 0 2 0 0 0 0 0 0 0 1 0 1-1 1-46 89-147 153-254 153-106 0-207-64-254-152 0-1 0-1 0-2 0 0 0 0 0 0-1-1-1-2-1-2 0-2 0-3 0-4 0-1 0-2 0-3 0-1 0-2 1-3 0 0 0 0 0 0 0-1 0-1 0-1 47-89 148-153 254-153 107 0 208 64 254 153 1 0 1 0 1 1 0 0 0 0 0 0 0 1 0 2 0 2 1 2 1 3 1 4 0 1 0 2-1 4z m-255-132c-89 0-177 51-221 128 44 77 132 128 221 128 90 0 178-51 222-128-44-77-132-128-222-128z m0 192c0 0 0 0 0 0-35 0-64-29-64-64 0-4 4-8 8-8 5 0 8 4 8 8 0 26 22 48 48 48l0 0c5 0 8 4 8 8 0 4-3 8-8 8z m0 48c-62 0-112-50-112-112 0-62 50-112 112-112 62 0 112 50 112 112 0 62-50 112-112 112z m0-208c-53 0-96 43-96 96 0 53 43 96 96 96 53 0 96-43 96-96 0-53-43-96-96-96z"/>
<glyph glyph-name="bubble" unicode="&#102;" d="M256 400c-95 0-176-51-176-112 0-4 4-8 8-8 4 0 8 4 8 8 0 51 75 96 160 96 4 0 8 4 8 8 0 4-4 8-8 8z m0 80c-141 0-256-86-256-192 0-66 44-124 112-159 0 0 0-1 0-1 0-29-21-60-31-76 0 0 0 0 0 0-1-2-1-3-1-6 0-8 6-14 14-14 2 0 5 0 5 0 50 8 97 54 108 68 16-3 32-4 49-4 141 0 256 86 256 192 0 106-115 192-256 192z m0-352c-15 0-30 1-45 3-1 1-3 1-4 1-10 0-19-5-25-12-7-8-26-27-49-41 6 15 11 31 11 47 0 1 0 2 0 3 0 12-7 23-17 29-60 30-95 79-95 130 0 88 100 160 224 160 123 0 224-72 224-160 0-88-100-160-224-160z"/>
<glyph glyph-name="banknote" unicode="&#103;" d="M503 343l-160 160c-8 8-20 11-31 8-5-1-11-4-15-8-3-4-6-9-8-14-7-23-19-43-38-62-25-25-57-43-91-63-36-21-74-43-104-74-26-26-44-55-55-89-3-11 0-23 8-32l160-160c8-8 20-11 31-8 5 1 11 4 15 8 3 4 6 8 8 14 7 23 19 43 38 62 25 25 57 43 91 63 36 21 74 43 104 74 26 26 44 55 55 89 3 11 0 23-8 32z m-311-311c-53 53-107 107-160 160 45 147 243 141 288 288 53-53 107-107 160-160-45-147-243-141-288-288z m121 242c-5 4-10 7-16 8-5 2-10 2-16 2-5 0-10-2-16-4-5-2-10-4-16-7-8 10-17 20-26 29 4 4 8 5 12 6 3 0 7-1 10-2 3 0 7-1 9-2 3 0 6 0 8 2 2 2 4 5 4 8 0 3-1 6-4 9-3 4-7 6-12 7-5 1-10 1-15 0-5-1-10-3-15-6-4-3-8-5-10-8-2 1-3 2-4 3-1 1-2 2-4 2-2 0-3-1-4-3-1-1-2-2-2-4 0-2 1-3 2-4 1-1 2-2 3-3-4-5-7-10-10-16-2-6-4-11-5-17 0-6 0-11 2-15 2-5 5-9 10-13 7-6 16-9 26-8 11 0 22 3 33 10 10-11 19-22 29-32-4-4-8-6-11-6-3-1-6-1-8 0-3 1-5 2-7 3-2 2-4 3-6 4-2 1-5 2-7 2-2 0-4-1-7-3-2-3-4-5-4-8 0-3 2-6 4-9 3-4 7-6 11-8 4-2 9-3 14-4 6 0 11 1 17 3 6 2 12 6 18 12 2-3 5-6 8-8 1-1 3-2 4-2 2 1 4 1 5 3 1 1 1 3 1 4 0 2-1 3-2 4-3 3-5 5-8 7 5 6 8 12 11 19 3 6 5 12 5 17 1 6 0 11-1 15-2 5-5 9-10 13z m-89-11c-5 0-9 1-12 4-2 2-3 4-4 6 0 2 0 4 0 6 0 3 1 5 2 8 1 2 3 5 5 7 8-8 16-17 25-26-7-3-12-5-16-5z m75-32c-1-3-3-5-5-7-9 9-18 19-27 29 2 1 5 2 7 3 3 1 6 2 8 2 3 1 5 1 8 0 3-1 5-2 7-4 3-3 4-5 5-7 0-3 0-6 0-8-1-3-2-6-3-8z m-64-74l0 0c-10-8-19-16-28-25-9-8-17-18-24-27l-11-15 0 0c-2-3-1-7 1-10 4-3 9-3 12 0 0 1 1 1 1 2l10 14c7 8 14 17 22 25 9 9 17 16 27 24l0 0c1 0 1 0 1 0 3 3 3 8 0 12-3 3-7 3-11 0z m59 232c-8-9-17-16-27-24 0 0-1 0-2-1-3-3-3-8 0-11 3-3 8-3 12-1l0 0c10 8 19 16 28 25 9 9 17 18 24 27l11 15 0 0c2 4 2 8-1 11-3 4-8 4-11 0-1 0-1-1-2-2l-10-14c-7-9-14-17-22-25z"/>
<glyph glyph-name="heart" unicode="&#104;" d="M467 428c-58 57-151 58-211 4-60 54-153 53-211-4-60-60-60-156 0-215 17-17 177-175 177-175 19-19 49-19 68 0 0 0 175 173 177 175 60 59 60 155 0 215z m-23-192l-177-175c-6-7-16-7-22 0l-177 175c-47 46-47 122 0 169 45 45 118 47 166 4l22-20 22 20c48 43 121 41 166-4 47-47 47-123 0-169z m-296 156c0 0 0 0 0 0-38 0-68-30-68-68 0-4 4-8 8-8 4 0 8 4 8 8l0 0c0 29 23 52 52 52l0 0c4 0 8 4 8 8 0 4-4 8-8 8z"/>
<glyph glyph-name="key" unicode="&#105;" d="M368 512c-88 0-160-72-160-160 0-21 4-40 11-58l-194-194c-6-6-9-11-9-20l0-48c0-17 15-32 32-32l48 0c9 0 14 3 20 9l23 23 37 0c18 0 32 14 32 32l0 32 32 0c18 0 32 14 32 32l0 38 38 37c18-7 37-11 58-11 88 0 160 72 160 160 0 88-72 160-160 160z m0-288c-24 0-46 7-65 18l-5-5-18-18-31-31c-6-6-9-14-9-22l0-38-32 0c-18 0-32-14-32-32l0-32-37 0c-9 0-17-3-23-9l-23-23-45 0 0 46 187 186c0 0 0 0 0 0l23 23c-11 19-18 41-18 65 0 71 57 128 128 128 71 0 128-57 128-128 0-71-57-128-128-128z m93 156c-18 25-40 47-65 65-4 3-9 4-14 2-22-8-37-23-45-45-1-2-1-4-1-5 0-3 1-7 3-9 18-25 40-47 65-65 4-3 9-4 14-2 22 8 37 23 45 45 1 2 1 3 1 5 0 3-1 7-3 9z m-48-44c-24 17-44 37-61 61 6 17 18 29 35 35 24-17 44-38 61-61-6-17-18-29-35-35z"/>
<glyph glyph-name="like" unicode="&#106;" d="M467 344c-20 6-67 6-136 7 3 15 4 29 4 53 0 57-42 108-79 108-26 0-48-21-48-48 0-32-10-88-64-116-4-2-15-7-17-8l1-1c-8 7-20 13-32 13l-48 0c-26 0-48-22-48-48l0-256c0-26 22-48 48-48l48 0c19 0 35 12 43 28 0 0 0-1 0-1 1 0 3 0 4-1 1 0 1 0 1 0 9-2 27-6 65-15 8-2 51-11 95-11l88 0c27 0 46 10 57 31 0 0 4 7 7 17 2 7 3 18 0 28 18 12 23 30 27 42 6 19 4 33 0 43 9 9 18 23 21 44 2 14 0 27-6 38 9 11 13 23 14 35l0 4c0 2 0 3 0 8 0 20-14 45-45 54z m-355-296c0-9-7-16-16-16l-48 0c-9 0-16 7-16 16l0 256c0 9 7 16 16 16l48 0c9 0 16-7 16-16z m368 231c-1-7-4-23-32-23-24 0-32 0-32 0-4 0-8-4-8-8 0-4 4-8 8-8 0 0 7 0 31 0 24 0 27-20 26-30-2-11-8-34-35-34-27 0-38 0-38 0-4 0-8-4-8-8 0-4 4-8 8-8 0 0 19 0 32 0 27 0 24-21 20-33-5-16-8-31-42-31-12 0-26 0-26 0-5 0-8-4-8-8 0-4 3-8 8-8 0 0 11 0 25 0 17 0 18-17 16-22-2-7-4-12-4-12-5-9-13-14-29-14l-88 0c-44 0-87 10-88 10-67 16-70 17-74 18 0 0-14 2-14 14l0 221c0 7 5 14 13 17 1 0 2 0 3 1 73 30 95 97 96 151 0 8 6 16 16 16 17 0 47-34 47-76 0-38-2-44-15-84 160 0 159-2 173-6 17-5 19-20 19-24 0-6 0-5 0-11z m-408-183c-13 0-24-11-24-24 0-13 11-24 24-24 13 0 24 11 24 24 0 13-11 24-24 24z m0-32c-4 0-8 4-8 8 0 4 4 8 8 8 4 0 8-4 8-8 0-4-4-8-8-8z"/>
<glyph glyph-name="location" unicode="&#107;" d="M256 228c53 0 96 43 96 96 0 53-43 96-96 96-53 0-96-43-96-96 0-53 43-96 96-96z m0 176c44 0 80-36 80-80 0-44-36-80-80-80-44 0-80 36-80 80 0 44 36 80 80 80z m0 108c-106 0-192-85-192-192 0-112 96-227 166-307 0 0 12-13 25-13 0 0 2 0 2 0 13 0 25 13 25 13 70 80 166 195 166 307 0 107-86 192-192 192z m2-478c0 0-1-1-2-2 0 1-2 2-2 2-59 68-158 182-158 286 0 88 72 160 160 160 88 0 160-72 160-160 0-104-99-218-158-286z"/>
<glyph glyph-name="lock" unicode="&#108;" d="M400 304l0 64c0 80-64 144-144 144-80 0-144-64-144-144l0-64c-27 0-48-21-48-48l0-112c0-80 64-144 144-144l96 0c80 0 144 64 144 144l0 112c0 27-22 48-48 48z m-256 64c0 62 50 112 112 112 62 0 112-50 112-112l0-64-32 0 0 64c0 44-36 80-80 80-44 0-80-36-80-80l0-64-32 0z m176 0l0-64-128 0 0 64c0 35 29 64 64 64 35 0 64-29 64-64z m96-160l0-64c0-62-50-112-112-112l-96 0c-62 0-112 50-112 112l0 112c0 9 7 16 16 16 11 0 21 0 32 0l224 0c11 0 21 0 32 0 9 0 16-7 16-16z m-160 0c-18 0-32-14-32-32 0-10 5-28 11-43 4-12 9-21 21-21 13 0 17 9 21 21 6 15 11 33 11 43 0 18-14 32-32 32z"/>
<glyph glyph-name="mail" unicode="&#109;" d="M448 432l-384 0c-35 0-64-29-64-64l0-208c0-35 29-64 64-64l384 0c35 0 64 29 64 64l0 208c0 35-29 64-64 64z m-416-84l112-84-112-84z m448-188c0-18-14-32-32-32l-384 0c-18 0-32 14-32 32l125 94 70-52c9-7 19-10 29-10 10 0 20 3 29 10l70 52z m0 20l-112 84 112 84z m-205 34c-5-4-12-6-19-6-7 0-14 2-19 6l-66 50-14 10-125 94 0 0c0 18 14 32 32 32l384 0c18 0 32-14 32-32z"/>
<glyph glyph-name="megaphone" unicode="&#110;" d="M400 512c-33 0-59-23-77-57l-1 0c-26-53-66-87-110-87l-148 0c-36 0-64-35-64-80 0-45 28-80 64-80 18 0 32-14 32-32l0-144c0-18 14-32 32-32l64 0c18 0 32 14 32 32l0 16c0 16-16 23-16 32l0 112c0 0 0 1 0 1 0 2 1 4 2 6 0 1 1 1 1 2 1 2 3 3 5 4 0 0 0 1 0 1 0 0 0 0 0 0 1 0 3 1 4 1 41-4 77-37 102-86l1 0c18-35 44-57 77-57 74 0 112 113 112 224 0 111-38 224-112 224z m-80-224c0 17 1 33 3 48l45 0c18 0 32-22 32-48 0-27-14-48-32-48l-45 0c-2 15-3 31-3 48z m-288 0c0 26 14 48 32 48l112 0c-10-12-16-29-16-48 0-19 6-36 16-48l-112 0c-18 0-32 21-32 48z m160-256l-64 0 0 144c0 12-3 23-9 32l11 0 0 0 49 0c-2-5-3-10-3-16l0-112c0-15 9-26 14-32 0-1 1-1 2-2z m20 208l-4 0 0 0c-18 0-32 21-32 48 0 26 14 48 32 48l4 0c30 0 58 12 83 32-5-25-7-53-7-80 0-27 2-55 7-80-25 20-53 32-83 32z m188-144c-32 0-60 46-73 112l41 0c36 0 64 35 64 80 0 45-28 80-64 80l-41 0c13 66 41 112 73 112 44 0 80-86 80-192 0-106-36-192-80-192z"/>
<glyph glyph-name="note" unicode="&#111;" d="M503 391l-96 96c-6 6-15 9-23 9l-336 0c-26 0-48-22-48-48l0-384c0-26 22-48 48-48l416 0c26 0 48 22 48 48l0 304c0 8-3 17-9 23z m-23-327c0-9-7-16-16-16l-416 0c-9 0-16 7-16 16l0 384c0 9 7 16 16 16l320 0 0-64 0 0c0-27 21-48 48-48l64 0z m-48 304l-16 0c-18 0-32 14-32 32l0 0 0 64 96-96z m-184 16l80 0c4 0 8 4 8 8 0 4-4 8-8 8l-80 0c-4 0-8-4-8-8 0-4 4-8 8-8z m0-48l80 0c4 0 8 4 8 8 0 4-4 8-8 8l-80 0c-4 0-8-4-8-8 0-4 4-8 8-8z m-8-40c0-4 4-8 8-8l192 0c4 0 8 4 8 8 0 4-4 8-8 8l-192 0c-4 0-8-4-8-8z m200-88l-368 0c-4 0-8-4-8-8 0-4 4-8 8-8l368 0c4 0 8 4 8 8 0 4-4 8-8 8z m0-48l-368 0c-4 0-8-4-8-8 0-4 4-8 8-8l368 0c4 0 8 4 8 8 0 4-4 8-8 8z m0-48l-368 0c-4 0-8-4-8-8 0-4 4-8 8-8l368 0c4 0 8 4 8 8 0 4-4 8-8 8z m0 144l-368 0c-4 0-8-4-8-8 0-4 4-8 8-8l368 0c4 0 8 4 8 8 0 4-4 8-8 8z m-360 32l112 0c9 0 16 7 16 16l0 96c0 9-7 16-16 16l-112 0c-9 0-16-7-16-16l0-96c0-9 7-16 16-16z m16 96l80 0 0-64-80 0z"/>
<glyph glyph-name="news" unicode="&#112;" d="M464 512l-352 0c-27 0-48-21-48-48l0-32-16 0c-27 0-48-21-48-48l0-320c0-35 29-64 64-64l384 0c35 0 64 29 64 64l0 400c0 27-22 48-48 48z m16-448c0-18-14-32-32-32l-384 0c-18 0-32 14-32 32l0 320c0 9 7 16 16 16l16 0 0-320c0-9 7-16 16-16 9 0 16 7 16 16l0 384c0 9 7 16 16 16l352 0c9 0 16-7 16-16z m-168 240l128 0c4 0 8 4 8 8 0 4-4 8-8 8l-128 0c-4 0-8-4-8-8 0-4 4-8 8-8z m0 48l128 0c4 0 8 4 8 8 0 4-4 8-8 8l-128 0c-4 0-8-4-8-8 0-4 4-8 8-8z m0 48l128 0c4 0 8 4 8 8 0 4-4 8-8 8l-128 0c-4 0-8-4-8-8 0-4 4-8 8-8z m-48-320l-128 0c-4 0-8-4-8-8 0-4 4-8 8-8l128 0c4 0 8 4 8 8 0 4-4 8-8 8z m0 48l-128 0c-4 0-8-4-8-8 0-4 4-8 8-8l128 0c4 0 8 4 8 8 0 4-4 8-8 8z m0 48l-128 0c-4 0-8-4-8-8 0-4 4-8 8-8l128 0c4 0 8 4 8 8 0 4-4 8-8 8z m176-96l-128 0c-4 0-8-4-8-8 0-4 4-8 8-8l128 0c4 0 8 4 8 8 0 4-4 8-8 8z m0 48l-128 0c-4 0-8-4-8-8 0-4 4-8 8-8l128 0c4 0 8 4 8 8 0 4-4 8-8 8z m0 48l-128 0c-4 0-8-4-8-8 0-4 4-8 8-8l128 0c4 0 8 4 8 8 0 4-4 8-8 8z m0 96l-304 0c-4 0-8-4-8-8 0-4 4-8 8-8l304 0c4 0 8 4 8 8 0 4-4 8-8 8z m0-48l-304 0c-4 0-8-4-8-8 0-4 4-8 8-8l304 0c4 0 8 4 8 8 0 4-4 8-8 8z m-296 80l112 0c9 0 16 7 16 16l0 112c0 9-7 16-16 16l-112 0c-9 0-16-7-16-16l0-112c0-9 7-16 16-16z m16 112l80 0 0-80-80 0z"/>
<glyph glyph-name="star" unicode="&#113;" d="M510 311c-4 13-16 22-29 24l-134 20-58 120c-6 13-19 21-33 21-14 0-27-8-33-21l-58-120-134-20c-13-2-25-11-29-24-4-13-1-27 9-36l97-98-22-135c-3-14 3-27 15-35 6-5 13-7 21-7 6 0 12 2 18 4l116 63 116-63c6-2 12-4 18-4 8 0 15 2 21 7 12 8 18 21 15 35l-22 135 98 98c9 9 12 23 8 36z m-133-109c-8-8-11-19-10-31l23-135-116 63c-6 3-12 4-18 4-6 0-12-1-18-4l-116-63 23 135c1 12-2 23-10 31l-98 98 133 20c12 1 23 9 28 20l58 120 58-120c5-11 16-19 28-21l133-19z"/>
<glyph glyph-name="search" unicode="&#114;" d="M320 512c-106 0-192-86-192-192 0-32 8-63 22-90l-133-133 0 0c-11-11-17-25-17-41 0-31 25-56 56-56 16 0 30 6 41 17l0 0 133 133c27-14 58-22 90-22 106 0 192 86 192 192 0 106-86 192-192 192z m-243-475c-5-5-13-9-21-9-15 0-28 13-28 28 0 8 4 15 9 21l0 0 129 129c11-15 25-29 40-40z m243 123c-88 0-160 72-160 160 0 88 72 160 160 160 88 0 160-72 160-160 0-88-72-160-160-160z m0 272c-62 0-112-50-112-112 0-4 4-8 8-8 4 0 8 4 8 8 0 53 43 96 96 96 4 0 8 4 8 8 0 4-4 8-8 8z"/>
<glyph glyph-name="phone" unicode="&#115;" d="M384 512l-256 0c-27 0-48-21-48-48l0-416c0-27 21-48 48-48l256 0c26 0 48 22 48 48l0 416c0 27-22 48-48 48z m16-464c0-9-7-16-16-16l-256 0c-9 0-16 7-16 16l0 32 288 0z m0 48l-288 0 0 320 288 0z m0 336l-288 0 0 32c0 9 7 16 16 16l256 0c9 0 16-7 16-16z m-112 24c0-4-4-8-8-8l-48 0c-4 0-8 4-8 8 0 4 4 8 8 8l48 0c4 0 8-4 8-8z m-16-400c0-4-4-8-8-8l-16 0c-4 0-8 4-8 8 0 4 4 8 8 8l16 0c4 0 8-4 8-8z"/>
<glyph glyph-name="paperplane" unicode="&#116;" d="M505 509c-3 2-6 3-9 3-3 0-6-1-9-3l-480-320c-5-3-8-9-7-15 1-6 5-11 10-13l125-50 59-103c3-5 8-8 14-8 0 0 0 0 0 0 6 0 11 3 14 8l33 55 155-62c2-1 4-1 6-1 3 0 5 1 8 2 4 2 7 7 8 11l80 480c1 7-2 13-7 16z m-455-329l371 247-270-289c-1 1-2 2-4 3z m113-53c0 0 0 0 0 0l303 325-258-403z m240-89l-136 55c-3 1-7 2-10 2l210 326z"/>
<glyph glyph-name="pen" unicode="&#117;" d="M470 471c-26 26-61 41-95 41-29 0-55-11-75-30l-77-78c-1-1-1-1-1-1 0 0 0 0 0-1l0 0-166-166c-7-8-13-17-16-27l-38-137c0 0-2-11-2-16 0-31 25-56 56-56 6 0 18 3 19 3l135 36c11 3 20 8 28 16l244 246c44 45 39 119-12 170z m-214-340c-1 15-5 29-11 42l151 152c9-30 4-60-16-80 0-1 0-1 0-1l0 0-124-125c0 4 1 8 0 12z m-19 57c-6 10-13 19-21 28-10 9-21 17-33 23l152 153c12-5 24-13 34-23 9-9 15-18 20-28z m-69 59c-15 6-31 9-46 10l123 124c19 18 46 23 74 17z m-101-213c-2 0-7-2-11-2-13 0-24 11-24 24 0 3 1 7 2 9l16 61c19 1 38-7 54-22 16-16 23-36 22-54z m75 20c0 21-9 44-27 61-16 17-38 27-60 27l16 58c1 4 3 8 6 11 32 23 82 16 116-18 36-36 42-89 14-121-2-1-4-2-6-3z m317 270l-27-28c0 4 1 8 0 11-3 31-17 61-40 85-27 26-61 41-95 41l26 26c13 14 32 21 52 21 26 0 52-12 73-32 19-19 30-43 32-67 1-22-6-42-21-57z"/>
<glyph glyph-name="tag" unicode="&#118;" d="M502 290l-80 128c-11 19-32 30-54 30l-304 0c-35 0-64-29-64-64l0-256c0-35 29-64 64-64l304 0c22 0 43 11 54 30l80 128c13 21 13 47 0 68z m-27-51l-80-128c-6-9-16-15-27-15l-304 0c-18 0-32 14-32 32l0 256c0 18 14 32 32 32l304 0c11 0 21-6 27-15l80-128c7-10 7-24 0-34z m-107 65c-27 0-48-22-48-48 0-27 21-48 48-48 26 0 48 21 48 48 0 26-22 48-48 48z m0-80c-18 0-32 14-32 32 0 18 14 32 32 32 18 0 32-14 32-32 0-18-14-32-32-32z"/>
<glyph glyph-name="user" unicode="&#119;" d="M498 59c-3 2-62 40-149 59 32 40 53 94 61 131 12 50 8 147-40 209-28 35-68 54-114 54-46 0-86-19-114-54-48-62-52-159-40-209 8-37 29-91 61-131-87-19-146-57-149-59-11-8-17-23-13-36 4-14 17-23 31-23l448 0c14 0 27 9 31 23 4 13-2 28-13 36z m-174 79l-5-7c-38-44-88-44-126 0l-5 7c-45 56-67 131-57 202 8 68 48 140 125 140 77 0 117-72 125-140 10-71-12-146-57-202z m-292-106c2 1 56 37 137 55l40 8c14-9 30-15 47-15 17 0 33 6 47 15l40-8c80-18 134-53 137-55z"/>
<glyph glyph-name="whatsapp" unicode="&#121;" d="M486 260c0-124-101-225-226-225-39 0-77 11-109 28l-125-39 40 120c-20 34-32 73-32 116 0 124 101 224 226 224 125 0 226-100 226-224z m-226 189c-105 0-190-85-190-189 0-41 13-80 36-111l-24-70 74 23c30-19 66-31 104-31 105 0 190 85 190 189 0 104-85 189-190 189z m114-241c-1 2-5 4-10 7-6 2-33 16-38 17-5 2-9 3-13-2-3-6-14-18-17-22-3-4-7-4-12-1-6 3-24 8-45 27-16 15-27 33-31 38-3 6 0 9 3 11 2 3 5 7 8 10 3 3 4 6 6 9 2 4 1 7-1 10-1 3-12 30-17 41-4 11-9 9-12 9-4 0-7 0-11 0-4 0-10-1-15-7-5-5-19-18-19-45 0-28 20-54 22-57 3-4 39-61 95-83 57-22 57-15 67-14 10 1 33 13 37 26 5 13 5 24 3 26z"/>
<glyph glyph-name="telephone" unicode="&#122;" d="M104 172c51-61 112-108 181-142 26-12 62-27 101-30 3 0 5 0 7 0 27 0 48 9 65 28 0 0 1 0 1 0 6 8 13 15 20 22 5 4 10 9 15 15 23 23 23 53 0 76l-64 64c-11 11-24 17-37 17-14 0-27-6-38-17l-38-38c-3 2-7 3-10 5-5 2-9 4-12 7-35 22-66 50-96 87-15 19-25 35-33 52 10 9 20 18 29 27 3 4 6 7 9 10 12 12 18 25 18 38 0 14-6 27-18 39l-31 31c-4 4-7 8-11 11-7 8-14 15-21 22-11 10-24 16-38 16-13 0-26-6-38-16l-39-40c-15-15-23-32-25-52-2-26 3-53 15-85 19-51 47-97 88-147z m-77 229c2 15 7 26 17 37l40 39c6 6 13 9 19 9 7 0 13-3 19-9 7-7 14-14 21-21 4-4 8-7 11-11l32-32c6-6 10-13 10-20 0-6-4-13-10-20-3-3-7-6-10-10-10-10-19-19-29-28 0 0-1 0-1 0-9-9-7-18-5-24 0 0 0-1 0-1 8-20 20-38 37-60 32-40 66-70 103-94 4-3 9-5 14-7 4-2 8-4 11-7 1 0 1 0 2 0 3-2 7-3 10-3 8 0 14 5 16 7l39 40c7 6 13 9 20 9 8 0 14-5 19-9l64-64c12-13 12-26-1-40-4-5-9-9-14-14-7-7-15-15-22-23-12-13-27-19-46-19-1 0-3 0-5 0-35 2-67 16-92 27-66 32-123 77-172 135-39 48-66 92-83 140-11 29-15 52-14 73z"/>
<glyph glyph-name="angle-down" unicode="&#65;" d="M399 265c0-2-1-5-3-6l-133-134c-2-1-5-2-7-2-2 0-5 1-7 2l-133 134c-2 1-3 4-3 6 0 3 1 5 3 7l15 14c1 2 4 3 6 3 3 0 5-1 7-3l112-112 112 112c2 2 4 3 7 3 2 0 5-1 6-3l15-14c2-2 3-4 3-7z m0 110c0-3-1-5-3-7l-133-133c-2-2-5-3-7-3-2 0-5 1-7 3l-133 133c-2 2-3 4-3 7 0 2 1 5 3 6l15 15c1 2 4 3 6 3 3 0 5-1 7-3l112-113 112 113c2 2 4 3 7 3 2 0 5-1 6-3l15-15c2-1 3-4 3-6z"/>
<glyph glyph-name="cctv" unicode="&#66;" d="M296 386c-6 0-10-4-10-10 0-6 4-10 10-10 6 0 10 4 10 10 0 6-4 10-10 10z m206 60l-492 0c-6 0-10-4-10-10l0-60c0-26 20-48 46-50l0-50c0-78 42-146 105-182 0 0 0 0 0 0 0 0 0 0 0 0 32-18 68-28 105-28 38 0 75 10 105 28l0 0c31 18 58 44 76 76 19 32 29 68 29 106l0 50c26 2 46 24 46 50l0 60c0 6-4 10-10 10z m-156-337c-28-15-59-23-90-23-31 0-62 8-90 23l0 87c0 50 40 90 90 90 50 0 90-40 90-90z m100 167c0-62-30-119-80-155l0 75c0 61-49 110-110 110-61 0-110-49-110-110l0-75c-50 36-80 93-80 155l0 50 380 0z m46 110l-156 0c-6 0-10-4-10-10 0-6 4-10 10-10l154 0c-4-12-15-20-28-20-37 0-361 0-412 0-17 0-30 13-30 30l0 50 472 0z m-236-120c-39 0-70-31-70-70 0-39 31-70 70-70 39 0 70 31 70 70 0 39-31 70-70 70z m0-120c-28 0-50 22-50 50 0 28 22 50 50 50 28 0 50-22 50-50 0-28-22-50-50-50z m0 80c-17 0-30-13-30-30 0-17 13-30 30-30 17 0 30 13 30 30 0 17-13 30-30 30z m0-40c-6 0-10 4-10 10 0 6 4 10 10 10 6 0 10-4 10-10 0-6-4-10-10-10z"/>
<glyph glyph-name="lift" unicode="&#68;" d="M437 63l0 401-362 0 0-401-41 0 0-15 444 0 0 15z m-189 0l-105 0 0 334 105 0z m121 0l-105 0 0 334 105 0z m53 0l-37 0 0 349-258 0 0-349-37 0 0 386 332 0z m-27 218l16 0 0-16-16 0z m0-34l16 0 0-16-16 0z m-181 191l16 0 0-15-16 0z m34 0l16 0 0-15-16 0z m34 0l16 0 0-15-16 0z m214-375l16 0 0-15-16 0z m-496 0l16 0 0-15-16 0z"/>
<glyph glyph-name="club" unicode="&#70;" d="M375 86c-18 7-42 11-67 12l0 405c0 5-4 9-9 9-5 0-9-4-9-9l0-9-93-12c-4-1-8-4-8-9l0-55-82-29c-4-1-6-5-6-8 0-4 2-8 6-9l147-52c1 0 2-1 3-1 2 0 4 1 6 2 2 2 4 5 4 8l0 48 23-3 0-276c-26-1-49-5-67-12-24-9-37-22-37-37 0-15 13-28 37-37 20-8 47-12 76-12 28 0 56 4 76 12 23 9 36 22 36 37 0 15-13 28-36 37z m-167 368l29-19-29-10z m40-112l-110 39 110 38z m19 53l0 37c0 3-2 6-4 8-1 0-40 27-40 27l67 8 0-82z m-62-346c0 12 33 29 85 31l0-61c-52 2-85 18-85 30z m103-30l0 61c52-2 85-19 85-31 0-12-33-28-85-30z"/>
<glyph glyph-name="power" unicode="&#73;" d="M393 401l-26 0 0 85c0 15-11 26-26 26-14 0-25-11-25-26l0-85-120 0 0 85c0 15-11 26-25 26-15 0-26-11-26-26l0-85-26 0c-5 0-8-3-8-8l0-65c0-43 16-84 45-116 26-29 40-66 40-104l0-23c0-24 19-42 43-42l8 0 0-34c0-6 4-9 9-9 5 0 9 3 9 9l0 34 8 0c24 0 43 18 43 42l0 22c0 39 13 76 40 105 29 31 45 73 45 116l0 65c0 5-3 8-8 8z m-60 85c0 6 3 9 8 9 5 0 9-3 9-9l0-85-17 0z m-171 0c0 5 4 9 9 9 5 0 8-3 8-9l0-85-17 0z m222-157c0-40-14-76-40-105-29-32-45-74-45-116l0-23c0-14-11-25-26-25l-34 0c-15 0-26 11-26 25l0 22c0 42-16 84-45 116-25 29-40 66-40 105l0 56 256 0z m-94-39l-48 0 46 45c3 4 3 9 0 12-4 4-9 4-12 0l-60-59c-3-3-4-6-2-10 1-3 4-5 8-5l48 0-46-45c-3-4-3-9 0-12 2-2 4-3 6-3 3 0 5 1 6 3l60 60c3 2 4 6 2 9-1 3-4 5-8 5z"/>
<glyph glyph-name="water" unicode="&#74;" d="M484 353l-65 0c-1 0-2 0-2-1l-157-45c-5-1-7-6-6-11 1-5 7-8 12-6l155 44 63 0c5 0 9-4 9-10l0-26-74 0c-1 0-3-1-5-1l-263-154 0 114 84 24c5 1 7 6 6 11-1 5-7 8-11 7l-79-23 0 53 125 66c14 7 20 23 15 37-5 15-20 23-35 20-46-10-159-33-216-43-23-4-40-24-40-47l0-58c0-5 4-9 9-9 6 0 10 4 10 9l0 21 113 0 0-61c0 0 0 0 0 0l0-186-113 0 0 194c0 5-4 9-10 9-5 0-9-4-9-9l0-203c0-5 4-10 9-10l132 0c6 0 10 5 10 10l0 52 271 158 4 0 0-20c0-6 4-10 9-10l56 0c6 0 10 4 10 10l0 20 2 0c5 0 9 4 9 10l0 35c0 16-13 29-28 29z m-345-9l-120 0 0 18c0 14 10 26 24 28 57 10 171 34 217 44 6 1 11-2 13-8 2-5 0-12-5-14z m343-76l-37 0 0 11 37 0z m12-72l-24 24c-4 4-10 4-13 0l-24-24c-17-17-17-44 0-61 8-9 19-13 30-13 12 0 23 4 31 13 17 17 17 44 0 61z m-13-48c-10-10-25-10-35 0-10 10-10 26 0 35l17 18 18-18c10-9 10-25 0-35z"/>
<glyph glyph-name="gym" unicode="&#67;" d="M503 358l-25 0 0 13c0 17-14 30-30 30-4 0-9-1-13-3l0 12c0 18-15 34-34 34-19 0-34-16-34-34l0-52-34 0 0 9c0 14-11 25-26 26-6 0-12-3-17-7-10 9-24 9-34 0-10 9-24 9-34 0-11 9-27 9-36-2-4-5-7-11-7-17l0-9-34 0 0 52c0 18-15 34-34 34-19 0-34-16-34-34l0-12c-4 2-9 3-13 3-16 0-30-13-30-30l0-13-25 0c-5 0-9-3-9-8l0-51c0-5 4-9 9-9l25 0 0-13c0-16 14-30 30-30 4 0 9 2 13 3l0-11c0-19 15-34 34-34 19 0 34 15 34 34l0 51 17 0 0-28c0-12 5-23 13-31l21-21 0-142 17 0 0 145c0 3-1 5-2 6l-24 25c-5 4-8 11-8 18l0 54 50 0c3 0 6-2 8-4 1 0 1 0 1-1 0 0 0-1 0-1 1-1 1-1 1-2 0-1 0-1 0-2 0 0 0 0 0 0 0-1-1-2-1-3-2-3-5-4-8-4l-25 0c-5 0-9-4-9-9l0-17c0-4 3-7 6-8l19-6c15-5 26-28 26-46l18 0c0 24-15 54-39 62l-13 4 0 3 17 0c8 0 14 3 19 8l75 0 0-31c0-6-2-11-5-16l-19-25c-1-1-1-3-1-5l0-145 17 0 0 142 17 23c5 8 8 17 8 26l0 31 26 0 0-51c0-19 15-34 34-34 19 0 34 15 34 34l0 11c4-1 9-3 13-3 16 0 30 14 30 30l0 13 25 0c5 0 9 4 9 9l0 51c0 5-4 8-9 8z m-469-51l-17 0 0 34 17 0z m43-30c0-7-6-12-13-12-7 0-13 5-13 12l0 94c0 7 6 13 13 13 7 0 13-6 13-13z m51-38c0-9-8-17-17-17-9 0-17 8-17 17l0 171c0 9 8 17 17 17 9 0 17-8 17-17z m43 94c-5 0-9-4-9-9l0-17-17 0 0 34 34 0c0-1 0-3 1-4 0-1 0-1 0-2 0-1 0-1 1-2z m42 8c0-4-3-8-8-8-5 0-9 4-9 8l0 26c0 5 4 8 9 8 5 0 8-3 8-8z m34 0c0-4-3-8-8-8-5 0-9 4-9 8l0 26c0 5 4 8 9 8 5 0 8-3 8-8z m52 26c0 5 3 8 8 8 5 0 9-3 9-8l0-26c0-4-4-8-9-8-5 0-8 4-8 8z m-34 0c0 5 3 8 8 8 5 0 9-3 9-8l0-26c0-4-4-8-9-8-5 0-8 4-8 8z m102-60l-111 0c0 0 0 0 0 0 0 2 0 4-1 5 0 1 0 1 0 1 0 1 0 1 0 2-1 1-1 2-2 3 0 1 0 1 0 2 0 0 0 0 0 0 0 0 1 1 1 1 1 0 1 1 2 1 1 0 1-1 2-1 0 0 1-1 1-1 1-1 2-1 3-1 0-1 1-1 1-1 1-1 2-1 4-1 0 0 1-1 1-1 3 0 7 0 10 0 1 0 1 1 2 1 1 0 2 0 3 1 0 0 1 0 1 1 1 0 2 0 3 1 0 0 1 1 2 1 0 0 1 1 1 1 1 0 1-1 2-1 0 0 1-1 1-1 1-1 2-1 3-1 0-1 1-1 2-1 1-1 2-1 3-1 0 0 1-1 1-1 14-3 27 6 30 20 1 2 1 4 1 5l34 0z m51-68c0-9-8-17-17-17-9 0-17 8-17 17l0 171c0 9 8 17 17 17 9 0 17-8 17-17z m43 38c0-7-6-12-13-12-7 0-13 5-13 12l0 94c0 7 6 13 13 13 7 0 13-6 13-13z m34 30l-17 0 0 34 17 0z"/>
<glyph glyph-name="fire" unicode="&#75;" d="M427 512l-145 0c-24 0-43-19-43-43 0-9 3-18 9-25l-43 0c-80 0-145-65-145-145l0-179-17-80c-1-8 1-16 6-23 4-5 10-8 17-8l38 0c7 0 14 3 18 8 5 7 7 15 5 23l-16 80 0 170c0 53 41 97 93 102-21-16-33-41-33-68l0-315c0-5 3-9 8-9l205 0c5 0 9 4 9 9l0 315c-1 38-25 70-60 82l0 12c0 11-8 21-18 25 2 3 5 7 6 11l62-66c10-10 26-10 36 0 10 10 10 26 0 36l-34 37 76 0c5 0 8 4 8 8 0 24-19 43-42 43z m-350-341l17 0 0-43-17 0z m32-143c-1-1-3-2-5-2l-38 0c-1 0-3 1-4 2-2 2-3 5-2 8l15 75 20 0 16-75 0 0c0-3 0-6-2-8z m-15 262l0-102-17 0 0 111c0 70 57 128 128 128l25 0 0-17-17 0c-66 0-119-54-119-120z m281-273l-187 0 0 43 187 0 0-43z m0 60l-187 0 0 230 187 0 0-230z m0 247l-187 0c0 38 30 68 68 69l51 0c38-1 68-31 68-69z m-59 94l0-8-69 0 0 17 60 0c5 0 9-4 9-9z m91-6c2-1 3-3 3-6 0-2-1-4-3-6-3-3-8-3-12 0l-57 61 23 0z m-91 66c-5 0-9-4-9-9 0-14-11-25-25-25-15 0-26 11-26 25 0 14 11 26 26 26l145 0c11 0 20-7 24-17z"/>
<glyph glyph-name="slide" unicode="&#71;" d="M24 31c-11 0-18 1-19 1-3 0-5 3-5 6 0 6 3 12 7 17 5 5 11 7 18 7 20 0 49 3 72 20 35 25 54 64 71 100 11 24 22 47 36 61 27 27 49 34 59 35l0 130-11 0c-2 0-5 2-5 4-1 3 0 5 2 7l80 61c2 1 5 1 7 0l80-61c2-2 3-4 2-7-1-2-3-4-5-4l-11 0 0-129 33 0c3 0 6-3 6-6 0-3-3-6-6-6l-32 0 15-37c0 0 1 0 1 0l32 0c3 0 6-3 6-6 0-3-3-6-6-6l-28 0 14-36 30 0c3 0 6-3 6-6 0-4-3-6-6-6l-25 0 14-37 29 0c4 0 6-2 6-6 0-3-2-6-6-6l-24 0 15-36 30 0c3 0 6-3 6-6 0-3-3-6-6-6l-26 0 14-33c0-2 0-4-1-6-1-1-3-2-5-2l-37 0c-3 0-5 1-6 3l-74 187c-6 15-21 25-37 25-21 0-39-18-39-39l0-170c0-4-3-6-6-6l-21 0c-3 0-6 2-6 6l0 207c-7-3-21-10-36-25-10-11-18-28-27-45 0-1 0-2 0-2l0-136c0-3-3-6-6-6-3 0-6 3-6 6l0 114c-14-30-31-61-57-85l0-29c0-3-3-6-6-6-3 0-6 3-6 6l0 19c-1 0-2-1-3-2-28-20-68-23-91-23z m-11 12c17-1 65-1 95 21 37 26 57 67 74 104 12 23 22 45 36 60 19 20 36 27 44 30l0 8c-8-2-26-8-49-31-13-13-24-35-35-58-17-37-36-78-74-105-26-18-57-22-79-22-4 0-7-1-9-3-2-1-2-3-3-4z m442 0l24 0-89 224-116 0 0-14c0 0 0 0 0 0l0-210 9 0 0 165c0 28 23 51 51 51 21 0 40-13 48-32z m-181 236l117 0 0 129-117 0z m-4 141l125 0-63 48z m96-110l-67 0c-3 0-6 3-6 6l0 63c0 4 3 6 6 6l67 0c3 0 6-2 6-6l0-63c0-3-3-6-6-6z m-28 12l22 0 0 20-22 0z m-33 0l22 0 0 20-22 0z m33 32l22 0 0 20-22 0z m-33 0l22 0 0 20-22 0z"/>
<glyph glyph-name="parking" unicode="&#72;" d="M457 376c-11 27-28 52-49 73-84 84-220 84-304 0-21-21-38-46-49-73-10-27-16-55-15-83 0-57 23-110 64-149 35-34 145-138 147-139l5-5 6 5c1 1 111 105 146 139 41 39 64 92 64 149 1 28-5 56-15 83z m-60-221c-31-29-118-111-141-133-23 22-110 104-141 133-38 36-59 85-59 138-1 54 21 106 59 145 39 38 90 58 141 58 51 0 102-20 141-58 38-39 60-91 59-145 0-53-21-102-59-138z m-74 187c-2 6-6 12-11 16-5 5-12 8-20 11-8 2-17 4-28 4l-55 0 0-156 36 0 0 52 19 0c11 0 20 1 28 4 8 2 14 6 20 11 5 4 8 10 11 16 2 7 4 14 4 22 0 7-1 14-4 20z m-39-39c-4-5-11-7-20-7l-19 0 0 50 19 0c5 0 8-1 12-2 3-1 6-3 8-5 2-2 4-5 5-8 1-2 2-6 2-9 0-8-3-15-7-19z m-213 1l16 0 0-16-16 0z m352 0l16 0 0-16-16 0z m-175-233l17 0 0-17-17 0z m0 61l17 0 0-13-17 0z m0-29l17 0 0-16-17 0z m-35 336c-5-1-10-3-15-6l6-14c5 2 9 3 14 5z m44 7c-9 0-18-1-27-3l3-16c8 2 16 3 24 3 72 0 131-59 131-132 0-72-59-131-131-131-73 0-132 59-132 131 0 47 25 90 65 114l-8 14c-22-13-40-31-53-53-13-23-20-49-20-75 0-81 66-147 148-147 81 0 147 66 147 147 0 82-66 148-147 148z"/>
<glyph glyph-name="running-silhouettes" unicode="&#69;" d="M507 88l-81 62-45 170 23 0 52-57c3-4 7-5 12-4 4 0 7 3 9 7l19 42c2 5 2 10-1 13l-50 66c-2 3-6 5-10 5l-86 0c-2 0-3-1-5-1l-9-4c4 9 6 19 6 29 0 39-31 71-70 71-39 0-71-32-71-71 0-28 17-52 40-63l-31 0-40 46c-3 3-7 5-11 4-4 0-8-3-10-6l-18-34c-2-4-2-8 0-12l34-67c2-5 6-7 11-7l80 0 14-62-56-16c-5-1-8-5-9-9l-31-121c-2-5 0-10 4-13l31-27c2-2 5-3 8-3 1 0 2 0 3 0 4 1 7 4 9 8l38 92 71 19 6-28c1-3 3-6 6-8l130-80c3-2 7-3 11-2 4 2 7 5 8 8l13 39c2 5 0 11-4 14z m-281 328c0 25 20 45 45 45 25 0 45-20 45-45 0-25-20-45-45-45-25 0-45 20-45 45z m253-357l-112 69-7 36c-1 3-3 6-6 8-3 2-7 2-10 1l-90-24c-4-1-7-4-9-8l-34-81-12 10 28 106 61 17c7 2 11 9 9 16l-19 83c-2 6-7 10-13 10l-82 0-28 54 7 12 31-37c2-2 6-4 10-4l50 0c2 0 3 0 5 1l93 38 78 0 41-54-8-18-43 48c-2 3-6 4-10 4l-45 0c-4 0-8-2-10-5-3-3-3-7-2-11l51-190c0-3 2-5 4-7l77-60z m-316 113l0 0c-1 0-1 0-2 0l0 1-46 25-23 92c0 3-3 6-6 8-3 1-6 2-10 1 8 4 12 12 12 21 0 15-11 26-25 26-14 0-26-11-26-26 0-14 12-25 26-25 1 0 2 0 3 0l-12-4-20 0-11 14c-4 4-10 6-16 3-5-2-8-8-7-14l0 0c1-2 1-4 2-5l15-21c2-2 5-4 8-5l31-5 7-32-15-6c-3-1-6-4-7-7l-20-47c-3-7-1-14 5-18 2-1 4-1 6-1 5 0 9 2 11 6l1 0c0 1 0 1 0 1l17 32 24 8 2-10c1-3 3-7 7-8l55-26 1-1c2-1 5-1 7-1 7 0 12 6 12 13 0 4-2 8-6 11z"/>
<glyph glyph-name="gate" unicode="&#76;" d="M483 372l0 0c6 8 10 18 10 28 0 25-21 46-46 46-26 0-46-21-46-46 0-10 3-20 9-28l0 0c-5 0-9-4-9-9l0-33c-11 7-22 13-33 18l0 15c0 5-4 9-9 9-5 0-9-4-9-9l0-7c-4 1-7 2-10 3-7 2-15 5-23 6l0 20c0 5-4 9-9 9-5 0-9-4-9-9l0-16c-11 2-22 3-33 3l0 28c0 5-4 9-9 9-5 0-9-4-9-9l0-28c-11 0-22-1-33-3l0 16c0 5-4 9-9 9-5 0-9-4-9-9l0-20c-8-1-16-4-24-6-3-1-6-2-9-3l0 7c0 5-4 9-9 9-5 0-9-4-9-9l0-15c-12-5-23-11-33-18l0 33c0 5-4 9-9 9l0 0c6 8 9 18 9 28 0 25-21 46-46 46-25 0-46-21-46-46 0-10 3-20 9-28l0 0c-5 0-9-4-9-9l0-295c0-5 4-9 9-9l102 0c6 0 10 4 10 9 0 5-4 9-10 9l-19 0 0 19 288 0 0-19-20 0c-5 0-9-4-9-9 0-5 4-9 9-9l102 0c6 0 10 4 10 9l0 295c0 5-4 9-10 9z m-388-295l-56 0 0 277 19 0 0-39c0-5 4-9 9-9 5 0 9 4 9 9l0 39 19 0 0-277z m-28 295c-15 0-28 13-28 28 0 15 13 28 28 28 15 0 28-13 28-28 0-15-13-28-28-28z m79-258l-33 0 0 194c10 8 21 14 33 20z m51 0l-33 0 0 222c11 4 22 8 33 11z m51 0l-33 0 0 236c11 2 22 3 33 4z m51 0l-33 0 0 240c11-1 22-2 33-4z m51 0l-33 0 0 233c11-3 22-7 33-11z m51 0l-33 0 0 214c11-6 22-12 33-20z m73-37l-55 0 0 277 18 0 0-39c0-5 5-9 10-9 5 0 9 4 9 9l0 39 18 0z m-27 295c-16 0-28 13-28 28 0 15 12 28 28 28 15 0 27-13 27-28 0-15-12-28-27-28z m-288-295l0 0c-5 0-9-4-9-9 0-5 4-9 9-9l0 0c5 0 9 4 9 9 0 5-4 9-9 9z m196 0l-1 0c-5 0-9-4-9-9 0-5 4-9 9-9l1 0c5 0 9 4 9 9 0 5-4 9-9 9z m-288 221c-5 0-9-4-9-9l0 0c0-6 4-10 9-10 5 0 9 4 9 10l0 0c0 5-4 9-9 9z m380 0c-5 0-10-4-10-9l0 0c0-6 5-10 10-10 5 0 9 4 9 10l0 0c0 5-4 9-9 9z"/>
<glyph glyph-name="jacuzzi" unicode="&#77;" d="M307 341c-11 20-46 33-90 33-53 0-93-20-93-46 0-1 0-2 0-2-64-19-102-50-102-84 0-13 6-25 16-37l0-17c0-90 73-164 163-164l109 0c90 0 164 74 164 164l0 17c10 12 15 24 15 37 0 48-75 89-182 99z m-90 18c41 0 72-14 77-28 0 0 0 0 0 0 1-1 1-2 1-3 0-15-33-31-78-31-3 0-5 0-8 0-1 0-1 0-1 0-3 0-5 0-7 0 0 0-1 0-1 0-2 1-4 1-7 1 0 0 0 0 0 0-2 1-5 1-7 1 0 0 0 0 0 0-16 3-29 9-38 15 0 0 0 0-1 1 0 0-1 1-1 1-1 1-1 1-2 2 0 0-1 0-1 1 0 0-1 1-1 1 0 1-1 1-1 1 0 1 0 1-1 2 0 1-1 3-1 5 0 14 33 31 78 31z m93-319l-109 0c-81 0-147 66-147 148l0 3c0-1 1-1 2-2 0 0 1 0 1-1 3-2 6-4 9-6 1 0 2-1 3-1 1-1 3-2 4-3 2 0 3-1 5-2 1-1 2-1 4-2 2-1 5-3 8-4 1 0 1 0 1 0 3-2 7-3 10-4 0 0 1 0 1-1 34-12 75-20 122-23 0 0 1 0 2 0 3 0 6-1 9-1 0 0 1 0 1 0 1 0 1 0 2 0 1 0 2 0 3 0 5 0 10 0 15 0 5 0 10 0 14 0 2 0 3 0 4 0 0 0 1 0 2 0 0 0 1 0 1 0 3 0 6 1 9 1 1 0 1 0 2 0 47 3 88 11 121 23 1 1 1 1 2 1 3 1 6 2 10 4 0 0 0 0 0 0 3 1 6 3 9 4 2 1 3 1 4 2 2 1 3 2 4 2 2 1 3 2 5 3 1 0 2 1 3 1 3 2 6 4 9 6 0 1 1 1 1 1 1 1 2 1 2 2l0-3 0 0c0-82-66-148-148-148z m70 210c-13 0-23-11-23-24l0-7-6 0c-2 0-3 1-5 1-1 1-3 1-5 2l0 20c0 13 11 23 24 23l31 0c13 0 23-10 23-23l0-56c-3-1-7-3-12-5 0 0 0 1 0 1-1 0-1 1-2 2 0 0-1 1-1 2l0 40c0 13-11 24-24 24z m8-24l0-27c-5 4-10 7-16 10 0 1 1 1 1 2l0 15c0 5 3 8 7 8 5 0 8-3 8-8z m-43-22c0 0 1 0 1 0 19-7 34-16 44-27 1 0 1-1 2-1-3-1-6-2-9-3-1 0-2 0-3-1 0 0-1 0-1 0-4-1-7-2-10-3-1 0-2 0-3 0-1-1-2-1-2-1-3-1-7-1-10-2-1 0-3-1-4-1-4-1-7-1-11-2-2 0-3 0-5-1-3 0-7-1-11-1-2 0-4-1-6-1-3 0-6-1-10-1-2 0-5 0-7-1-3 0-6 0-10 0-3-1-6-1-9-1-2 0-5 0-7 0 0 0-1 0-2 0-5 0-11-1-16-1-6 0-11 1-17 1 0 0-1 0-2 0-2 0-4 0-6 0-3 0-6 0-10 1-3 0-6 0-9 0-3 1-5 1-7 1-4 0-7 1-11 1-2 0-4 1-5 1-4 0-8 1-11 1-2 1-4 1-5 1-4 1-8 1-11 2-2 0-3 1-4 1-4 1-7 1-10 2-1 0-1 0-2 1-1 0-2 0-3 0-3 1-7 2-10 3 0 0-1 0-2 0-1 1-2 1-3 1-2 1-5 2-8 3 23 25 77 43 136 43 28 0 54-4 77-11 2 0 4-1 6-2 2 0 4-1 6-2z m116 10c0 0 0 0-1-1-6-7-15-13-25-19l0 48c0 21-18 39-39 39l-31 0c-22 0-39-18-39-39l0-16c-21 5-45 8-70 8-68 0-127-21-152-53-22 9-41 20-53 32 0 1 0 1 0 1-8 9-13 18-13 28 0 27 35 53 91 69 0 0 0 0 0 0 12-15 38-27 72-29 1 0 2-1 3-1 2 0 3 0 4 0 3 0 6 0 9 0 3 0 6 0 10 0 1 0 2 0 3 0 2 1 4 1 6 1 1 0 2 0 4 0 1 0 3 1 5 1 1 0 2 0 4 1 1 0 3 0 4 0 2 1 3 1 4 1 2 1 3 1 4 1 2 1 3 1 4 1 1 1 3 1 4 1 1 1 2 1 3 2 2 0 3 1 4 1 1 0 2 1 3 1 1 1 3 1 4 2 1 0 2 1 3 1 1 1 2 2 3 2 0 1 1 1 2 2 1 0 2 1 3 2 1 0 1 1 2 1 1 1 2 2 2 2 1 1 2 2 2 2 1 1 2 2 2 2 1 1 2 2 2 2 1 1 1 2 2 2 0 1 0 2 1 3 0 0 1 1 1 2 0 1 1 1 1 2 0 1 0 2 1 3 0 0 0 1 0 2 0 0 0 0 0 1 94-10 164-45 164-83 0-10-5-19-13-28z m-337 36l15 0 0-16-15 0z m0 31l15 0 0-16-15 0z m-39-55l15 0 0-15-15 0z m0 39l15 0 0-15-15 0z m399 185l-20-20-16 4c0 0 0 0 0 1-1 0-2 1-3 1l-78 24c-1 0-2 0-3 0 0 0-1 0-1 0 0 0 0 0-1 0l-14 4 14 14-11 11-23-24c-2-2-3-4-2-7 1-3 3-5 5-6l26-7 0-75c0-10 7-19 17-22l46-14c3-1 5-1 7-1 5 0 10 2 14 5 6 4 9 11 9 18l0 61 14-3c0-1 1-1 2-1 2 0 4 1 5 2l24 24z m-49-94c0-2-1-4-3-6-2-1-5-2-7-1l-47 14c-3 1-5 4-5 7l0 72 41-13 21-6 0-67z"/>
<glyph glyph-name="landscape" unicode="&#78;" d="M237 226c4 0 8 4 8 8l0 1c0 4-4 7-8 7-4 0-7-3-7-7l0-1c0-4 3-8 7-8z m-2 57l0 1c0 4-4 8-8 8-4 0-7-4-7-8l0-1c0-4 3-7 7-7 4 0 8 3 8 7z m61-46c14-2 26-9 34-21 2-3 7-4 10-1 4 2 4 7 2 10-9 13-22 22-37 26l0 3c0 37-31 68-68 68-37 0-67-31-67-68l0-17c-19-8-34-25-39-45-1-4 2-8 6-9 1-1 1-1 2-1 3 0 6 3 7 6 4 17 17 31 34 37 3 1 5 4 5 7l0 22c0 29 23 53 52 53 29 0 53-24 53-53l0-9c0-4 2-7 6-8z m94 97c0-15 12-27 27-27l50 0c16 0 28 12 28 27 0 15-12 28-28 28l-50 0c-15 0-27-13-27-28z m90 0c0-7-6-12-13-12l-50 0c-7 0-12 5-12 12 0 7 5 13 12 13l50 0c7 0 13-6 13-13z m-263 123l80 0c7 0 13-6 13-13 0-2-1-4-2-6-1-2-1-5 0-8 1-2 4-3 7-3l102 0c7 0 13-6 13-13 0-7-6-12-13-12l-160 0c-7 0-12 5-12 12 0 2 0 4 1 6 2 3 2 6 0 8-1 2-3 4-6 4l-13 0c-4 0-7-4-7-8 0-4 3-7 7-7l3 0c0-1 0-2 0-3 0-15 12-27 27-27l160 0c16 0 28 12 28 27 0 15-12 28-28 28l-92 0c0 1 0 1 0 2 0 15-13 28-28 28l-80 0c-4 0-7-4-7-8 0-4 3-7 7-7z m-2-198l0 1c0 4-4 7-8 7-4 0-7-3-7-7l0-1c0-5 3-8 7-8 4 0 8 3 8 8z m202-57c-4 0-7-3-7-7l0-1c0-4 3-8 7-8 4 0 8 4 8 8l0 1c0 4-3 7-8 7z m13-28l0-1c0-4 4-7 8-7 4 0 7 3 7 7l0 1c0 5-3 8-7 8-4 0-8-3-8-8z m57-123l-2 0c-1 12-5 23-10 33l0 75c0 40-33 72-73 72-32 0-60-21-69-51-4 1-7 1-11 1-29 0-52-23-52-52l0-16-204-28c-6 0-11-2-16-5 8 23 23 44 45 59 32 21 71 25 106 11l46-18c4-2 8 0 9 4 2 4 0 8-4 10l-45 18c-40 16-85 11-121-13-33-23-54-60-56-100l-3 0c-4 0-8-3-8-7 0-4 4-8 8-8l170 0c4 0 8 4 8 8 0 4-4 7-8 7l-43 0c-1 7-4 14-8 20-3 4-7 4-11 2-3-3-4-7-1-11 2-3 4-7 5-11l-94 0c3 10 12 18 23 19l210 29c0 0 0 0 0 0l111 15c20 3 41-3 57-17 13-11 22-28 24-46l-86 0c-1 19-10 36-25 49-3 2-7 2-10-1-3-3-3-8 1-11 11-10 18-22 19-37l-95 0c-1 13-7 25-16 35-3 3-8 3-11 0-3-3-3-8 0-11 6-6 11-15 12-24l-32 0c-4 0-7-3-7-7 0-4 3-8 7-8l260 0c5 0 8 4 8 8 0 4-3 7-8 7z m-27 53c-2 2-3 3-5 5-15 13-36 21-56 21-4 0-8 0-12-1l-102-14 0 14c0 21 17 37 37 37 5 0 9 0 14-2 2-1 4-1 6 0 2 1 3 3 4 6 5 27 29 46 56 46 32 0 58-25 58-57l0-55z m-270 101l0-1c0-4 3-8 7-8 4 0 8 4 8 8l0 1c0 4-4 7-8 7-4 0-7-3-7-7z"/>
<glyph glyph-name="badminton" unicode="&#79;" d="M457 473c-61 61-174 47-252-31-50-50-76-118-67-177 3-21-1-42-12-59l0-1c-8-8-11-20-8-30l-111-111c0 0 0-1 0-1l-1 0c-8-8-8-20 0-28l7-7c4-4 9-6 14-6 5 0 10 2 13 6l112 112c11-3 23 0 31 8 16 10 35 13 54 9 62-14 134 10 189 65 78 78 91 190 31 251z m-432-433l-7 7c-1 1-1 3 1 4l50 51 11-10-51-51c-1-1-3-2-4-1z m216 134c-24 5-48 1-68-12l-1-1c-5-4-13-6-18-4l-5 4-57-57-10 10 56 57-3 5c-2 5-1 13 4 18l2 3c13 20 18 45 14 71-8 53 16 116 63 162 41 42 94 64 141 64 33 0 63-11 85-33 54-54 41-156-30-227-50-49-118-73-173-60z m86 138l-35 0 0 17 12 0c5 0 9 4 9 9 0 5-4 9-9 9l-12 0 0 34c0 5-4 9-8 9-5 0-9-4-9-9l0-34-17 0 0 20c0 5-4 9-9 9-5 0-9-4-9-9l0-20-34 0c-5 0-9-4-9-9 0-5 4-9 9-9l34 0 0-17-17 0c-5 0-9-4-9-9 0-4 4-8 9-8l17 0 0-26c0-5 4-9 9-9 5 0 9 4 9 9l0 26 17 0 0-18c0-4 4-8 9-8 4 0 8 4 8 8l0 18 35 0c5 0 9 4 9 8 0 5-4 9-9 9z m-69 0l0 17 17 0 0-17z m-61-104c-9 0-17 12-17 26 0 5-4 9-9 9-5 0-9-4-9-9 0-24 16-43 35-43 5 0 9 4 9 9 0 4-4 8-9 8z m272-86l-25 0-100 33c-4 1-9 1-13-3l-32-26 27-22-25-26 25-25-27-22 32-27c3-2 6-3 9-3 1 0 3 0 4 1l100 33 25 0c24 0 43 19 43 43 0 24-19 44-43 44z m-128 16l93-31 0-10-91 15-17 14z m1-43l92-15 0-3-92-15-17 16z m-1-76l-15 12 17 13 91 15 0-9z m128 33l-18 0 0 52 18 0c14 0 26-11 26-26 0-14-12-26-26-26z"/>
<glyph glyph-name="tank" unicode="&#80;" d="M209 94l21 0 0-16-21 0z m-31 0l21 0 0-16-21 0z m284-47l0 290c0 26-14 49-36 62l0 40-26 0 0 23c0 8-5 19-19 19l-151 0c-7 0-18-5-18-19l0-146c-1-3-2-3-3-3l-47 0c-11 0-18-5-18-13l0-18-68 0 0-36-24 0c-16 0-28-13-28-29l0-170-24 0 0-16 512 0 0 16z m-371 219l121 0 0-20-121 0z m173-219l-225 0 0 73 225 0z m0 89l-225 0 0 47 225 0z m0 63l-225 0 0 18c0 7 6 13 13 13l199 0c7 0 13-6 13-13z m57-152l-41 0 0 170c0 16-13 29-29 29l-24 0 0 36-68 0 0 16c1 0 2 0 3 0l47 0c13 0 18 11 18 18l0 146c0 1 0 3 3 3l151 0c1 0 3 0 3-3l0-23-26 0 0-40c-22-13-37-36-37-62z m16 230l47 0 0-58-47 0z m110-230l-110 0 0 21 110 0z m0 37l-110 0 0 120 110 0z m0 135l-47 0 0 58 47 0z m0 74l-110 0 0 44c0 21 13 41 32 50l5 2 0 34 36 0 0-34 5-2c19-9 32-29 32-50z"/>
<glyph glyph-name="oc" unicode="&#82;" d="M253 317l-148 0c-4 0-8-4-8-8 0-4 4-7 8-7l148 0c4 0 7 3 7 7 0 4-3 8-7 8z m-40-39l-108 0c-4 0-8-3-8-7 0-5 4-8 8-8l108 0c4 0 7 3 7 8 0 4-3 7-7 7z m0-39l-108 0c-4 0-8-3-8-7 0-4 4-8 8-8l108 0c4 0 7 4 7 8 0 4-3 7-7 7z m0-100l-108 0c-4 0-8-3-8-7 0-4 4-8 8-8l108 0c4 0 7 4 7 8 0 4-3 7-7 7z m296 289c-1 1-3 1-4 1l-192 0-36 37c2 4 3 8 3 13 0 15-12 27-27 27-15 0-27-12-27-27 0-5 1-9 3-13l-36-37-77 0c-5 0-8-3-8-7 0-4 3-8 8-8l371 0-42-44c-1 0-379 0-379 0l-41 44 61 0c4 0 7 4 7 8 0 4-3 7-7 7 0 0-78 0-78 0-5 0-8-3-8-7 0 0 0-408 0-408 0-3 2-6 4-7 1 0 2-1 4-1l367 0c4 0 7 4 7 8 0 4-3 7-7 7l-350 0 41 45 377 0c1 0 1 0 2 0l42-45-82 0c-4 0-8-3-8-7 0-4 4-8 8-8 0 0 99 0 100 0 3 0 7 4 7 8 0 0 0 408 0 408 0 2-1 5-3 6z m-256 63c7 0 12-6 12-12 0-7-5-12-12-12-7 0-12 5-12 12 0 6 5 12 12 12z m-39-62l26 26c4-2 8-3 13-3 5 0 9 1 13 3l26-26z m-158-353l-41-43 0 370 41-43z m385 5l0 0-370 0 0 274 370 0 0 0z m56-48l-41 43 0 284 41 43z m-72 82l-31 97c10 4 16 15 15 26-1 4 0 7 2 9 10 10 10 25 0 35-2 3-3 6-2 9 1 14-8 26-21 28-3 1-6 3-8 6-4 8-13 13-22 13-4 0-8-1-11-2-3-2-6-2-9 0-4 1-7 2-11 2-10 0-18-5-23-13-1-3-4-5-7-6-14-2-23-14-21-28 1-3 0-6-2-9-10-10-10-25 0-35 2-2 3-5 2-9-1-11 5-22 15-26 0 0-32-97-32-97-2-6 4-12 10-9l26 10c0 0 15-24 15-24 3-5 12-4 14 2l18 57c0 0 19-57 19-57 2-6 11-7 14-2l14 24c0 0 27-10 27-10 5-3 11 3 9 9z m-111-1c0 0-9 15-9 15-2 4-6 5-9 3l-17-6 26 78c0 0 0 0 0 0 2-3 4-6 7-8 4-3 9-5 15-5 4 0 7 1 11 3 1 0 2 0 3 1z m17 93c0 0 0 0 0 0-5-2-11 0-13 5-4 6-11 11-18 13-6 1-10 6-9 11 1 8-1 16-7 21-4 4-4 11 0 15 6 5 8 13 7 21-1 6 3 11 9 12 7 1 14 6 18 13 2 5 8 7 13 4 7-3 16-3 23 0 4 3 11 1 13-4 4-7 10-12 18-13 6-1 9-6 9-12-1-8 1-16 7-21 3-4 3-11 0-15-6-5-8-13-7-21 0-5-3-10-9-11-6-1-11-5-15-9 0 0 0 0 0 0-2-2-2-4-4-6-3-5-9-4-14-2-7 3-14 2-21-1z m58-75c-3 2-7 1-9-3l-10-15-20 61 6 16c0 0 0 0 0 0 6 0 12 1 16 5 4 2 6 5 8 8l26-78z"/>
<glyph glyph-name="club-1" unicode="&#83;" d="M0 17l17 0 0-17-17 0z m495 0l17 0 0-17-17 0z m-346 231l214 0 0-17-214 0z m66 231l16 0 0-17-16 0z m33 0l16 0 0-17-16 0z m33 0l16 0 0-17-16 0z m-99-33l16 0 0-17-16 0z m33 0l16 0 0-17-16 0z m33 0l16 0 0-17-16 0z m33 0l16 0 0-17-16 0z m33 0l16 0 0-17-16 0z m-132-33l16 0 0-17-16 0z m33 0l16 0 0-17-16 0z m33 0l16 0 0-17-16 0z m33 0l16 0 0-17-16 0z m33 0l16 0 0-17-16 0z m-132-33l16 0 0-17-16 0z m33 0l16 0 0-17-16 0z m33 0l16 0 0-17-16 0z m33 0l16 0 0-17-16 0z m33 0l16 0 0-17-16 0z m-132-33l16 0 0-17-16 0z m33 0l16 0 0-17-16 0z m33 0l16 0 0-17-16 0z m33 0l16 0 0-17-16 0z m33 0l16 0 0-17-16 0z m-99-33l16 0 0-17-16 0z m33 0l16 0 0-17-16 0z m33 0l16 0 0-17-16 0z m95 42c2 10 4 21 4 32 0 68-56 124-124 124-68 0-124-56-124-124 0-11 2-22 4-32-41-18-65-45-69-75l-34 0 0-50 17 0 0-214-17 0 0-17 446 0 0 17-17 0 0 214 17 0 0 50-34 0c-4 30-28 57-69 75z m53-75l-111 0c23 13 42 34 52 59 33-15 54-37 59-59z m-181-132l0-132-50 0 0 132z m16 0l50 0 0-132-50 0z m66 0l17 0 0 16-182 0 0-16 17 0 0-132-50 0 0 247 248 0 0-247-50 0z m-181 247l16 0 0 17-13 0c1 6 3 11 5 16l8 0 0 16c5 8 10 14 17 20l0-3 16 0 0 16c17 11 37 17 58 17 21 0 41-6 58-17l0-16 16 0 0 3c7-6 12-12 17-20l0-16 8 0c2-5 4-10 5-16l-13 0 0-17 16 0c0-2 41935-5 41935-8 0-3 0-5 0-8l-16 0 0-17 13 0c-1-5-3-11-5-16l-8 0 0-16c-5-7-10-14-17-20l0 3-16 0 0-16c-17-11-37-17-58-17-21 0-41 6-58 17l0 16-16 0 0-3c-7 6-12 13-17 20l0 16-8 0c-2 5-4 11-5 16l13 0 0 17-16 0c0 3 0 5 0 8 0 3 0 6 41935 8z m-7-56c10-25 29-46 52-59l-111 0c5 22 26 44 59 59z m-76-109l33 0 0 17-49 0 0 16 66 0 0-247-50 0z m396 17l-49 0 0-17 33 0 0-214-50 0 0 247 66 0z m-74 264l17 0 0-17-17 0z m0-33l17 0 0-17-17 0z m17 16l16 0 0-16-16 0z m-33 0l16 0 0-16-16 0z m-281-8l16 0 0-16-16 0z m0-33l16 0 0-16-16 0z m16 17l17 0 0-17-17 0z m-33 0l17 0 0-17-17 0z m347-42l17 0 0-16-17 0z m0-33l17 0 0-16-17 0z m17 17l16 0 0-17-16 0z m-33 0l16 0 0-17-16 0z m-347-25l16 0 0-16-16 0z m0-33l16 0 0-16-16 0z m16 17l17 0 0-17-17 0z m-33 0l17 0 0-17-17 0z"/>
<glyph glyph-name="growth" unicode="&#84;" d="M501 310c0 0 0 0 0 0-19 18-40 10-55-3l-30-26c-19 19-44 30-70 30l0 103 24 0c19 0 35 15 35 34l0 37c0 4-4 8-8 8l-32 0c-18 0-34-16-34-35l0-4c-10 10-24 17-39 17l-41 0c-4 0-8-3-8-7l0-31c0-30 24-54 54-54l34 0 0-68c-33-4-62-23-79-52-8-1-14-2-20-5 0 0-1 0-1 0l-50-21-1 2c-3 9-13 13-22 10-54-21-97-37-146-55-10-4-14-14-11-24l51-135c4-9 14-14 24-10 11 4 131 49 146 55 9 3 13 13 10 21l-1 2c28 12 27 13 58 13 6 0 9 4 9 7 0 4-3 8-8 8-35 0-36-2-64-14l-40 106 51 21c15 6 24 5 97 5 8 0 14-3 17-9 3-4 3-8 4-9-1-3-2-17-16-19-20-4-65-10-65-10-4-1-7-4-7-9 1-4 5-7 9-6 0 0 45 7 66 10 19 3 26 19 27 30l87 72c0 0 0 0 0 0l1 1c8 8 21 15 34 4 14-14 1-31-2-34-4-4-110-118-110-118 0 0 0 0 0 0-15-18-36-21-45-21-3 0-6 0-9 0 0 0 0 0 0 0-4 0-7-4-7-8 0-4 3-7 7-7 3 0 6 0 10 0 0 0 0 0 0 0 10 0 36 4 55 26 110 118 110 118 110 118 0 0 0 0 0 0 10 11 21 35 1 54z m-155 121l0 27c0 11 9 20 19 20l25 0 0-30c0-11-9-19-20-19l-24 0z m-16-37l-33 0c-21 0-39 17-39 39l0 23 34 0c21 0 38-17 38-39z m-112-302c0-1 0-2-1-2l-34-13-21 58c-2 4-6 6-10 4-4-1-6-6-4-10l21-57c-25-10-88-33-99-37-1-1-3 0-4 1l-51 136c0 1 0 3 2 4 32 12 77 29 99 37l19-51c2-4 6-6 10-4 4 1 6 6 4 10l-19 50 33 13c1 0 2 0 3-1 3-8 50-133 52-138z m148 148c-4 10-14 20-32 20-30 0-50 0-63 0 16 23 43 36 72 36 23 0 45-8 61-24z"/>
<glyph glyph-name="tax" unicode="&#85;" d="M162 324l85 0 0-17-85 0z m0-42l154 0 0-17-154 0z m-85-43l239 0 0-17-239 0z m188 85l51 0 0-17-51 0z m-188-128l179 0 0-17-179 0z m0-42l179 0 0-17-179 0z m0-43l51 0 0-17-51 0z m68 0l111 0 0-17-111 0z m-68 213l60 0 0-17-60 0z m0-42l68 0 0-17-68 0z m307-60c-3 0-6 0-9-1l0 282c0 5-3 9-8 9l-341 0c-5 0-9-4-9-9l0-494c0-5 4-9 9-9l358 0c61 0 111 50 111 111 0 61-50 111-111 111z m-350-205l0 478 324 0 0-276c-59-14-96-74-82-133 7-29 24-53 49-69z m350 0c-52 0-94 42-94 94 0 52 42 94 94 94 52 0 94-42 94-94 0-52-42-94-94-94z m-122 438l-102-103-12 12 102 103z m-91-37c14 0 25 12 25 26 0 14-11 25-25 25-14 0-26-11-26-25 0-14 12-26 26-26z m0 34c4 0 8-4 8-8 0-5-4-9-8-9-5 0-9 4-9 9 0 4 4 8 9 8z m68-51c-14 0-26-11-26-26 0-14 12-25 26-25 14 0 26 11 26 25 0 15-12 26-26 26z m0-34c-5 0-9 4-9 8 0 5 4 9 9 9 5 0 8-4 8-9 0-4-3-8-8-8z m202-216l-17 17c-3 3-9 3-12 0l-28-28-28 28c-3 3-9 3-12 0l-17-17c-4-3-4-9 0-12l28-28-28-28c-4-4-4-9 0-12l17-17c3-4 9-4 12 0l28 28 28-28c3-4 9-4 12 0l17 17c4 3 4 8 0 12l-28 28 28 28c4 3 4 9 0 12z m-46-34c-3-3-3-9 0-12l28-28-5-5-28 28c-3 3-9 3-12 0l-28-28-5 5 28 28c3 3 3 9 0 12l-28 28 5 5 28-28c3-3 9-3 12 0l28 28 5-5z"/>
<glyph glyph-name="swimming-pool" unicode="&#86;" d="M508 34c-10 9-25 9-36 0l-15-12c-3-3-8-3-11 0l-16 12c-10 9-25 9-36 0l-15-12c-4-3-8-3-11 0l-16 12c-10 9-25 9-36 0l-15-12c-4-3-8-3-11 0l-16 12c-11 9-25 9-36 0l-15-12c-4-3-8-3-11 0l-16 12c-11 9-25 9-36 0l-16-12c-3-3-7-3-11 0l-15 12c-11 9-25 9-36 0l-16-12c-3-3-7-3-11 0l-15 12c-11 9-26 9-36 0-4-3-5-9-2-14 4-4 10-5 14-1 3 2 8 2 11 0l16-13c10-8 25-8 36 0l15 13c4 2 8 2 11 0l16-13c11-8 25-8 36 0l16 13c3 2 7 2 10 0l16-13c11-8 25-8 36 0l16 13c3 2 7 2 11 0l15-13c6-4 12-6 18-6 6 0 13 2 18 6l16 13c3 2 7 2 11 0l15-13c11-8 26-8 36 0l16 13c3 2 7 2 11 0l15-13c11-8 26-8 36 0l16 13c3 2 8 2 11 0 4-4 10-3 14 1 3 5 2 11-2 14z m0 65c-10 9-25 9-36 0l-15-12c-3-3-8-3-11 0l-16 12c-10 9-25 9-36 0l-15-12c-4-3-8-3-11 0l-16 12c-10 9-25 9-36 0l-15-12c-4-3-8-3-11 0l-16 12c-11 9-25 9-36 0l-15-12c-4-3-8-3-11 0l-16 12c-11 9-25 9-36 0l-16-12c-3-3-7-3-11 0l-15 12c-11 9-25 9-36 0l-16-12c-3-3-7-3-11 0l-15 12c-11 9-26 9-36 0-4-3-5-10-2-14 4-4 10-5 14-1 3 2 8 2 11 0l16-13c10-8 25-8 36 0l15 13c4 2 8 2 11 0l16-13c11-8 25-8 36 0l16 13c3 2 7 2 10 0l16-13c11-8 25-8 36 0l16 13c3 2 7 2 11 0l15-13c6-4 12-6 18-6 6 0 13 2 18 6l16 13c3 2 7 2 11 0l15-13c11-8 26-8 36 0l16 13c3 2 7 2 11 0l15-13c11-8 26-8 36 0l16 13c3 2 8 2 11 0 4-4 10-3 14 1 3 4 2 11-2 14z m0 65c-10 8-25 8-36 0l-15-13c-3-2-8-2-11 0l-16 13c-10 8-25 8-36 0l-15-12c-4-3-8-3-11 0l-16 12c-10 8-25 8-36 0l-15-13c-4-2-8-2-11 0l-16 13c-11 8-25 8-36 0l-15-13c-4-2-8-2-11 0l-16 13c-11 8-25 8-36 0l-16-13c-3-2-7-2-11 0l-15 13c-11 8-25 8-36 0l-16-13c-3-2-7-2-11 0l-15 13c-11 8-26 8-36 0-4-3-5-10-2-14 4-4 10-5 14-2 3 3 8 3 11 0l16-12c10-9 25-9 36 0l15 12c4 3 8 3 11 0l16-12c11-9 25-9 36 0l16 12c3 3 7 3 10 0l16-12c11-9 25-9 36 0l16 12c3 3 7 3 11 0l15-12c6-4 12-6 18-6 6 0 13 2 18 6l16 12c3 3 7 3 11 0l15-12c11-9 26-9 36 0l16 12c3 3 7 3 11 0l15-12c11-9 26-9 36 0l16 12c3 3 8 3 11 0 4-3 10-2 14 2 3 4 2 11-2 14z m-78 348c-45 0-82-37-82-82l0-108-180 0 0 36 107 0c6 0 10 5 10 10 0 6-4 10-10 10l-107 0 0 52c0 34 28 62 62 62 34 0 62-28 62-62l0-21c0-6 4-10 10-10 6 0 10 4 10 10l0 21c0 45-37 82-82 82-45 0-82-37-82-82l0-81-102 0c-5 0-10-4-10-10 0-5 5-10 10-10l102 0 0-146c0-5 5-10 10-10 6 0 10 5 10 10l0 7 180 0 0-7c0-5 4-10 10-10 5 0 10 5 10 10l0 247c0 34 28 62 62 62 34 0 62-28 62-62l0-21c0-6 4-10 10-10 5 0 10 4 10 10l0 21c0 45-37 82-82 82z m-82-302l-180 0 0 36 180 0z m0 56l-180 0 0 36 180 0z m-26 109c-2 2-4 3-7 3-3 0-5-1-7-3-2-2-3-4-3-7 0-2 1-5 3-7 2-2 4-3 7-3 3 0 5 1 7 3 2 2 3 5 3 7 0 3-1 5-3 7z m-305-29c-2 2-4 3-7 3-3 0-5-1-7-3-2-2-3-4-3-7 0-3 1-5 3-7 2-2 4-3 7-3 3 0 5 1 7 3 2 2 3 4 3 7 0 3-1 5-3 7z m485 3l-102 0c-5 0-10-4-10-10 0-5 5-10 10-10l102 0c5 0 10 5 10 10 0 6-5 10-10 10z"/>
<glyph glyph-name="spa" unicode="&#87;" d="M503 107l-9 0c24 23 24 60 1 84-4 4-8 7-12 10 18 10 29 30 29 51 0 33-27 59-60 59l-77 0 0 60c0 5-3 9-8 9-1 0-1 0-1 0l-101-16 0 8c19 4 34 22 34 42 0 37-35 73-37 74-3 3-9 3-12 0-2-1-37-37-37-74 0-20 15-38 34-42l0-11-103-16c-4 0-7-4-7-8l0-95c-7 7-14 12-22 17-2 2-6 2-8 0-26-15-43-40-46-69-6 1-12 2-18 2-4 0-8 0-12-1-3 0-5-2-6-5-18-41-4-88 32-113l-57 0 0-18 20 0 15-29c1-3 4-5 8-5l324 0c5 0 8 4 8 9l0 25 55 0 15-29c1-3 4-5 7-5l34 0c5 0 9 4 9 9l0 25 8 0c5 0 9 4 9 9l0 34c0 5-4 9-9 9z m-8 42c0-23-19-42-43-42l-153 0c-24 0-43 19-43 42 0 24 19 43 43 43l111 0c14 0 25-11 25-26 0-14-11-25-25-25l-86 0c-4 0-8 4-8 8 0 5 4 9 8 9l60 0 0 17-60 0c-14 0-25-12-25-26 0-14 11-25 25-25l86 0c23 0 42 19 42 42 0 10-3 19-8 26l8 0c24 0 43-19 43-43z m-68 145c14 0 25-11 25-25 0-14-11-26-25-26l-86 0c-4 0-8 4-8 9 0 4 4 8 8 8l60 0 0 17-60 0c-14 0-25-11-25-25 0-14 11-26 25-26l86 0c23 0 42 19 42 43 0 9-2 17-8 24 23-5 38-28 33-51-5-19-22-33-42-33l-119 0c-24 0-43 19-43 43 0 23 19 42 43 42z m-197 120c0 22 17 44 26 55 9-11 26-33 26-55 0-11-7-21-17-24l0 15-18 0 0-15c-10 3-17 13-17 24z m-119-172c19-13 31-34 34-57-13-5-25-13-34-23-9 10-21 18-34 23 2 23 15 44 34 57z m43-71c8 2 17 4 25 4 2 0 3 0 4 0 14-40-7-84-47-98-8-3-16-4-25-4-1 0-3 0-4 0-14 40 7 84 47 98z m-120-22c0 9 2 18 4 26 2 0 3 0 5 0 22 0 43-10 57-26-14-22-18-48-12-73-32 10-54 40-54 73z m140-111l-126 0-9 17 143 0z m82 0l-63 0 9 17 20 0 0 18-57 0c36 25 50 72 32 113-1 3-4 5-7 5-9 2-19 1-29-1-1 10-4 19-8 28l1 0 0 112 204 31 0-50-25 0c-33 1-60-26-60-59 0-16 7-32 19-43-33-4-57-34-53-67 2-13 8-26 18-35l-10 0c-4 0-8-4-8-9l0-34c0-5 4-9 8-9l9 0z m37 0l-20 0 0 17 29 0z m65 0l-46 0 9 17 37 0z m120 0l-20 0-9 17 29 0z m17 35l-239 0 0 17 239 0z m-324 238l17 0 0-68-17 0z m0-85l17 0 0-17-17 0z"/>
<glyph glyph-name="sea-view" unicode="&#88;" d="M441 512l-370 0c-5 0-9-4-9-9l0-494c0-5 4-9 9-9l370 0c5 0 9 4 9 9l0 494c0 5-4 9-9 9z m-193-494l-168 0 0 476 168 0 0-476z m184 0l-166 0 0 476 166 0c0 0 0-476 0-476z m-213 465l-110 0c-5 0-9-4-9-9l0-433c0-5 4-9 9-9l110 0c5 0 9 4 9 9l0 433c0 5-4 9-9 9z m-9-433l-92 0 0 84c5-5 12-8 20-8 11 0 21 6 26 15 5-9 14-15 25-15 8 0 15 3 21 8 0 0 0-84 0-84z m0 101c-2-9-11-16-21-16-11 0-21 9-21 21 0 1 0 2-1 3-1 1-2 1-3 1l0 0c-1 0-1 0-2 0 0-1 0-1-1-1 0 0 0 0 0-1-1 0-2-1-2-2 0-12-9-21-21-21-10 0-18 7-20 16l0 40c5-4 11-7 18-7 11 0 21 7 26 16 5-9 15-16 26-16 9 0 16 4 22 10 0 0 0-43 0-43z m0 64c-1 0-1 0-1-1 0-12-9-21-21-21-11 0-21 9-21 21 0 2-2 4-4 4 0 0 0 0-1 0 0 0 0 0-1 0-2 0-4-2-4-4 0-12-9-21-21-21-8 0-14 4-18 11l0 45c5-5 12-8 20-8 11 0 21 6 26 14 5-8 14-14 25-14 8 0 15 3 21 8 0 0 0-34 0-34z m0 50c-3-9-11-16-21-16-11 0-21 10-21 21 0 2-1 4-2 4-1 1-1 1-2 1l0 0c-1 0-1-1-2-1 0 0 0 0-1 0 0-1 0-1 0-1-1-1-2-2-2-3 0-11-9-21-21-21-10 0-18 7-20 17l0 199 92 0 0-200z m194 218l-110 0c-5 0-9-4-9-9l0-433c0-5 4-9 9-9l110 0c6 0 10 4 10 9l0 433c0 5-4 9-10 9z m-9-433l-91 0 0 84c5-5 12-8 20-8 11 0 20 6 26 15 5-9 14-15 25-15 8 0 15 3 20 8 0 0 0-84 0-84z m0 101c-2-9-10-16-20-16-12 0-21 9-21 21 0 1-1 2-2 3 0 1-1 1-2 1l0 0c-1 0-2 0-2 0 0-1-1-1-1-1 0 0-1 0-1-1-1 0-1-1-1-2 0-12-9-21-21-21-10 0-18 7-20 16l0 40c5-4 11-7 18-7 11 0 21 7 26 16 5-9 15-16 26-16 8 0 16 4 21 10z m0 64c0 0 0 0 0-1 0-12-9-21-21-21-12 0-21 9-21 21 0 2-2 4-4 4-1 0-1 0-1 0 0 0-1 0-1 0-2 0-4-2-4-4 0-12-10-21-21-21-8 0-15 4-18 11l0 45c5-5 12-8 20-8 11 0 20 6 26 14 5-8 14-14 25-14 8 0 15 3 20 8l0-34z m0 50c-2-9-10-16-20-16-12 0-21 10-21 21 0 2-1 4-3 4 0 1-1 1-1 1l0 0c-1 0-2-1-2-1 0 0-1 0-1 0 0-1-1-1-1-1-1-1-1-2-1-3 0-11-9-21-21-21-10 0-18 7-20 17l0 199 91 0z"/>
<glyph glyph-name="prize" unicode="&#89;" d="M441 320c6 16 4 35-6 50l-7 10c-3 4-5 9-6 14l-1 12c-2 18-13 33-29 41l-11 6c-4 2-8 6-11 10l-7 10c-10 15-26 24-44 24l-13 0c-5 0-9 1-14 3l-11 6c-16 8-34 8-50 0l-11-6c-5-2-9-3-14-3l-13 0c-18 0-34-9-44-24l-7-10c-3-4-7-8-11-10l-11-6c-16-8-27-23-29-41l-1-12c-1-5-3-10-6-14l-7-10c-10-15-12-34-6-50l5-12c1-4 2-9 1-14l-1-13c-2-17 4-35 18-47l9-8c4-3 7-7 8-12l5-12c4-12 13-22 25-28l-49-120c-2-4-1-9 2-12 4-4 9-5 13-3l54 21 24-53c1-4 6-7 10-7 0 0 1 0 1 0 4 0 9 3 10 7l50 121 50-121c1-4 6-7 10-7 0 0 1 0 1 0 4 0 9 3 10 7l24 53 54-21c4-2 9-1 13 3 3 3 4 8 2 12l-49 120c12 6 21 16 25 28l5 12c1 5 4 9 8 12l9 8c14 12 20 30 18 47l-1 13c-1 5 0 10 1 14z m-38-68l-10-8c-6-6-11-13-14-22l-5-11c-3-10-11-17-21-19l-12-3c-9-2-17-6-23-12l-10-8c-7-7-17-10-27-7l-12 3c-9 2-17 2-26 0l-12-3c-10-3-20 0-27 7l-10 8c-6 6-14 10-23 12l-12 3c-10 2-18 9-21 19l-5 11c-3 9-8 16-14 22l-10 8c-7 7-11 16-10 26l-1 13c1 8 0 17-3 25l-5 12c-3 10-2 20 4 28l7 11c5 7 8 15 9 24l-1 12c1 10 7 19 16 23l11 6c7 4 14 10 19 17l7 11c6 8 15 13 25 13l13 0c8 0 17 2 25 6l11 6c9 4 19 4 28 0l11-6c8-4 17-6 25-6l13 0c10 0 19-5 25-13l7-11c5-7 12-13 19-17l11-6c9-4 15-13 16-23l2-12c1-9 4-17 9-24l7-11c6-8 7-18 4-28l-5-12c-3-8-4-17-3-25l2-13c1-10-3-19-10-26z m-54-166c-6 3-13 0-15-6l-17-38-39 96c16-3 33 2 46 13l10 8c3 3 8 6 12 7l3 0 39-95z m-171-6c-2 6-9 9-15 6l-39-15 39 95 3 0c4-1 9-4 12-7l10-8c10-9 23-14 36-14 3 0 7 1 10 1l-39-96z m78 115c72 0 130 58 130 130 0 71-58 130-130 130-72 0-130-59-130-130 0-72 58-130 130-130z m0 236c59 0 106-48 106-106 0-59-47-107-106-107-59 0-106 48-106 107 0 58 47 106 106 106z m-55-174l110 0c7 0 12 5 12 12l0 70c0 4-2 7-5 9l-55 42c-4 3-10 3-14 0l-55-42c-3-2-5-5-5-9l0-70c0-7 5-12 12-12z m12 76l43 33 43-33 0-52-30 0 0 23c0 3-3 6-6 6l-14 0c-3 0-6-3-6-6l0-23-30 0z"/>
<glyph glyph-name="offer" unicode="&#81;" d="M510 373l-137 136c-3 4-9 4-12 0l-358-358c-4-3-4-9 0-12l136-137c3-3 9-3 12 0l359 359c3 3 3 9 0 12z m-365-352l-124 124 59 60 26-26-29 0c-10 1-19-4-24-12-6-9-7-21-2-31 5-10 14-16 25-17 9 0 18 5 24 11l19 20 0-39 18 0 0 37 68-68z m-38 141l-19-19c-2-2-7-7-10-7 0 0-1 1-1 1-5 0-9 2-10 6-3 5-3 10 0 14 2 3 5 5 9 5z m311 132l-201-202-70 70 41 0 0 17-39 0 20 19c11 11 11 30 0 41-11 11-30 11-41 0-5-5-9-13-9-21l0-28-27 27 190 189 12 12 73 73 124-124z m-281-103l0 27c0 4 1 8 4 10 2 2 5 2 7 2 2 0 3 0 5 0 6-3 9-10 7-16-1-1-2-3-3-4z m156 204l12 12 11-11-12-13z m23-23l12 12 11-11-12-12z m45-45l12 12 11-11-12-12z m-23 23l12 12 12-12-13-12z m45-46l12 12 12-11-12-12z m-184-119l128 128 12-12-128-128z m34-17l119 120 12-12-119-120z m154 188l42 43 12-13-42-42z m25-26l43 43 12-12-43-43z m-54 114l17 0 0-60-17 0z m-21-17c-7 0-13-6-13-13 0-7 6-13 13-13 7 0 13 6 13 13 0 7-6 13-13 13z m0-17c-2 0-4 2-4 4 0 2 2 4 4 4 2 0 4-2 4-4 0-2-2-4-4-4z m60 17c-7 0-13-6-13-13 0-7 6-13 13-13 7 0 13 6 13 13 0 7-6 13-13 13z m0-17c-3 0-4 2-4 4 0 2 1 4 4 4 2 0 4-2 4-4 0-2-2-4-4-4z m-235 102l17 0 0-26-17 0z m17-26l26 0 0-17-26 0z m-17-17l17 0 0-25-17 0z m-25 17l25 0 0-17-25 0z m-94-170l17 0 0-26-17 0z m17-26l25 0 0-17-25 0z m-17-17l17 0 0-26-17 0z m-26 17l26 0 0-17-26 0z m410-128l17 0 0-34-17 0z m17-34l34 0 0-17-34 0z m-17-17l17 0 0-34-17 0z m-34 17l34 0 0-17-34 0z"/>
<glyph glyph-name="check" unicode="&#120;" d="M212 77c-11 0-21 5-28 14 0 0-92 121-92 121-6 8-8 17-6 27 1 9 5 17 13 23 7 6 16 9 26 7 10-1 18-6 24-14 0 0 60-79 60-79 0 0 152 243 152 243 5 8 13 13 22 15 9 2 18 1 27-4 8-5 13-13 15-22 3-9 1-18-4-27 0 0-179-287-179-287-7-11-16-16-28-16 0 0-2-1-2-1"/>
<glyph glyph-name="check-box" unicode="&#90;" d="M433 39l-394 0 0 394 291 0 24 40-315 0c-21 0-39-18-39-40l0-394c0-21 18-39 39-39l394 0c22 0 40 18 40 39l0 260-40-63z m67 468c-5 4-10 5-16 5-9 0-17-4-23-13l-214-308-83 94c-11 11-28 10-39-1-10-12-9-29 2-39l100-114 2-3 2-3 2 0 2-2 5-3 1 0 9-2 0 0c8 0 15 3 20 9l3 4 0 0 235 338c8 13 4 30-8 38z"/>
<glyph glyph-name="check-1" unicode="&#48;" d="M14 517l-3 0c0-2-1-3-3-3-3 0-4 2-4 5 0 4 1 6 4 6 2 0 3-1 3-3l3 0c0 3-3 5-6 5-4 0-7-3-7-8 0-4 3-7 7-7 3 0 6 2 6 5z m-6 3l0 3c-1 0-1 0-1 0-1 0-2-1-3-2l0 2-3 0 0-11 3 0 0 6c0 2 1 2 3 2 0 0 0 0 1 0z m3-3c0 4-2 6-5 6-4 0-6-2-6-6 0-3 2-5 6-5 2 0 4 1 5 3l-3 0c0-1-1-1-2-1-2 0-3 1-3 3l8 0z m-3 2l-5 0c1 1 1 2 3 2 1 0 2-1 2-2z m3-7l0 0c-1 1-1 1-1 2l0 6c0 2-1 3-4 3-3 0-5-1-5-4l3 0c0 2 0 2 2 2 1 0 1 0 1-1 0-1-1-1-2-1l-1-1c-2 0-3-1-3-3 0-2 1-3 3-3 1 0 2 0 3 1 0 0 0-1 1-1l3 0z m-4 5c0-2-1-3-2-3-1 0-2 1-2 1 0 1 1 1 2 2l1 0c1 0 1 0 1 0z m-1-5l0 2c0 0 0 0 0 0-1 0-1 0-1 1l0 6 1 0 0 2-1 0 0 3-3 0 0-3-2 0 0-2 2 0 0-7c0-1 1-2 3-2 0 0 1 0 1 0z m5 0l0 15-3 0 0-5c0 1-1 1-3 1-2 0-4-2-4-5 0-4 1-6 4-6 2 0 3 0 3 1l0-1 3 0z m-3 5c0-2-1-3-2-3-2 0-3 2-3 4 0 2 1 3 3 3 1 0 2-1 2-4z m4 0c0 4-2 6-5 6-1 0-2 0-3-1l0 5-3 0 0-15 3 0 0 1c1-1 2-1 3-1 3 0 5 2 5 5z m-3 1c0-2-1-4-2-4-2 0-3 1-3 4 0 2 1 3 3 3 1 0 2-1 2-3z m2 5l-3 0-2-8-3 8-3 0 4-11 0-1c0-1 0-1-1-1-1 0-1 0-1 0l0-2c0 0 0 0 1 0 2 0 3 0 3 2z m2-6c0 2-1 3-4 4l-2 0c-3 0-3 1-3 2 0 1 1 2 2 2 2 0 4-1 4-3l2 0c0 4-2 5-5 5-4 0-6-1-6-4 0-3 1-4 4-4l2-1c2 0 3-1 3-2 0-1-1-2-3-2-2 0-3 1-3 3l-3 0c0-3 2-5 6-5 4 0 6 1 6 5z m-2-5l0 11-3 0 0-7c0-1-1-2-2-2-1 0-2 1-2 2l0 7-3 0 0-7c0-3 2-4 4-4 1 0 2 0 3 1l0-1 3 0z m0 3l0 0c0 2-1 3-3 3l-3 1c-1 0-1 1-1 1 0 1 1 1 2 1 1 0 2 0 2-1l2 0c0 2-1 3-4 3-3 0-5-1-5-3 0-2 0-3 2-3l4-1c1 0 1-1 1-1 0-1-1-1-2-1-2 0-2 0-3 2l-2 0c0-3 1-4 5-4 3 0 5 1 5 3z m0-3l0 7c0 3-1 4-4 4-1 0-2 0-3-1l0 1-3 0 0-11 3 0 0 7c0 1 1 2 2 2 2 0 2-1 2-2l0-7 3 0z m1 5c0 4-2 6-6 6-3 0-5-2-5-5 0-4 2-6 5-6 4 0 6 2 6 5z m-3 1c0-3-1-4-3-4-1 0-2 1-2 4 0 2 1 3 2 3 2 0 3-1 3-3z m2 5l-3 0-2-8-3 8-3 0 4-11 3 0z m-5-2l0 2-1 0 0 1c0 1 0 1 0 1 1 0 1 0 1 0l0 2c0 0-1 0-1 0-2 0-3-1-3-3l0-1-2 0 0-2 2 0 0-9 3 0 0 9 1 0z m11-9l0 8c0 2-1 3-4 3-1 0-2 0-3-1 0 1-2 1-3 1-1 0-2 0-3-1l0 1-3 0 0-11 3 0 0 7c0 1 1 2 2 2 1 0 2-1 2-2l0-7 2 0 0 7c0 1 1 2 2 2 1 0 2-1 2-2l0-7 3 0z m-6 0l0 7c0 3-1 4-4 4-1 0-2 0-3-1l0 5-3 0 0-15 3 0 0 7c0 1 1 2 2 2 1 0 2-1 2-2l0-7 3 0z m3 0l0 15-4 0 0-10-5 10-4 0 0-15 3 0 0 10 6-10 4 0z m-1 10c0 3-2 5-5 5l-6 0 0-15 3 0 0 5 3 0c3 0 5 2 5 5z m-3 0c0-1-1-2-2-2l-3 0 0 4 3 0c1 0 2 0 2-2z m-6-12l0 13-3 0 0-12c0-1 0-1 0-1-1 0-1 0-1 0l0-2c1 0 1 0 2 0 2 0 2 0 2 2z m0 14l0 3-3 0 0-3 3 0z m7-8l-3 0c0-1-1-2-2-2-2 0-2 1-2 3 0 3 0 4 2 4 1 0 2-1 2-2l3 0c-1 3-2 4-5 4-3 0-5-2-5-6 0-3 2-5 5-5 3 0 4 2 5 4z m55-239c5 18 22 39 51 33 23-6 42-27 58-61 85 119 158 200 255 231 9 2 13 1 7-6-100-81-191-198-261-344-1-3-7-3-9 1-22 39-37 77-59 116-9 20-21 35-42 30z"/>
<glyph glyph-name="check-2" unicode="&#49;" d="M14 517l-3 0c0-2-1-3-3-3-3 0-4 2-4 5 0 4 1 6 4 6 2 0 3-1 3-3l3 0c0 3-3 5-6 5-4 0-7-3-7-8 0-4 3-7 7-7 3 0 6 2 6 5z m-6 3l0 3c-1 0-1 0-1 0-1 0-2-1-3-2l0 2-3 0 0-11 3 0 0 6c0 2 1 2 3 2 0 0 0 0 1 0z m3-3c0 4-2 6-5 6-4 0-6-2-6-6 0-3 2-5 6-5 2 0 4 1 5 3l-3 0c0-1-1-1-2-1-2 0-3 1-3 3l8 0z m-3 2l-5 0c1 1 1 2 3 2 1 0 2-1 2-2z m3-7l0 0c-1 1-1 1-1 2l0 6c0 2-1 3-4 3-3 0-5-1-5-4l3 0c0 2 0 2 2 2 1 0 1 0 1-1 0-1-1-1-2-1l-1-1c-2 0-3-1-3-3 0-2 1-3 3-3 1 0 2 0 3 1 0 0 0-1 1-1l3 0z m-4 5c0-2-1-3-2-3-1 0-2 1-2 1 0 1 1 1 2 2l1 0c1 0 1 0 1 0z m-1-5l0 2c0 0 0 0 0 0-1 0-1 0-1 1l0 6 1 0 0 2-1 0 0 3-3 0 0-3-2 0 0-2 2 0 0-7c0-1 1-2 3-2 0 0 1 0 1 0z m5 0l0 15-3 0 0-5c0 1-1 1-3 1-2 0-4-2-4-5 0-4 1-6 4-6 2 0 3 0 3 1l0-1 3 0z m-3 5c0-2-1-3-2-3-2 0-3 2-3 4 0 2 1 3 3 3 1 0 2-1 2-4z m4 0c0 4-2 6-5 6-1 0-2 0-3-1l0 5-3 0 0-15 3 0 0 1c1-1 2-1 3-1 3 0 5 2 5 5z m-3 1c0-2-1-4-2-4-2 0-3 1-3 4 0 2 1 3 3 3 1 0 2-1 2-3z m2 5l-3 0-2-8-3 8-3 0 4-11 0-1c0-1 0-1-1-1-1 0-1 0-1 0l0-2c0 0 0 0 1 0 2 0 3 0 3 2z m4-11l-7 9 6 6-4 0-5-7 0 7-3 0 0-15 3 0 0 5 1 2 5-7 4 0z m-11 0l0 11-3 0 0-11 3 0z m0 12l0 3-3 0 0-3 3 0z m7-9l0 0c0 2-1 3-3 3l-3 1c-1 0-1 1-1 1 0 1 1 1 2 1 1 0 2 0 2-1l2 0c0 2-1 3-4 3-3 0-5-1-5-3 0-2 0-3 2-3l4-1c1 0 1-1 1-1 0-1-1-1-2-1-2 0-2 0-3 2l-2 0c0-3 1-4 5-4 3 0 5 1 5 3z m2 7c0 3-2 5-5 5l-6 0 0-15 3 0 0 5 3 0c3 0 5 2 5 5z m-3 0c0-1-1-2-2-2l-3 0 0 4 3 0c1 0 2 0 2-2z m2-4c0 3-2 5-5 5-1 0-2 0-3-2l0 2-3 0 0-15 3 0 0 5c1-1 2-1 3-1 3 0 5 2 5 6z m-3 0c0-2-1-4-3-4-1 0-2 1-2 4 0 2 1 3 2 3 2 0 3-1 3-3z m2-6l-4 7 4 4-3 0-4-4 0 8-3 0 0-15 3 0 0 4 1 1 3-5 3 0z m1 5c0 4-2 6-6 6-3 0-5-2-5-5 0-4 2-6 5-6 4 0 6 2 6 5z m-3 1c0-3-1-4-3-4-1 0-2 1-2 4 0 2 1 3 2 3 2 0 3-1 3-3z m2 5l-3 0-2-8-3 8-3 0 4-11 3 0z m-5-2l0 2-1 0 0 1c0 1 0 1 0 1 1 0 1 0 1 0l0 2c0 0-1 0-1 0-2 0-3-1-3-3l0-1-2 0 0-2 2 0 0-9 3 0 0 9 1 0z m11-9l0 8c0 2-1 3-4 3-1 0-2 0-3-1 0 1-2 1-3 1-1 0-2 0-3-1l0 1-3 0 0-11 3 0 0 7c0 1 1 2 2 2 1 0 2-1 2-2l0-7 2 0 0 7c0 1 1 2 2 2 1 0 2-1 2-2l0-7 3 0z m-6 0l0 7c0 3-1 4-4 4-1 0-2 0-3-1l0 5-3 0 0-15 3 0 0 7c0 1 1 2 2 2 1 0 2-1 2-2l0-7 3 0z m3 0l0 15-4 0 0-10-5 10-4 0 0-15 3 0 0 10 6-10 4 0z m-3 0l0 11-3 0 0-7c0-1-1-2-2-2-1 0-2 1-2 2l0 7-3 0 0-7c0-3 2-4 4-4 1 0 2 0 3 1l0-1 3 0z m0 0l0 7c0 3-1 4-4 4-1 0-2 0-3-1l0 1-3 0 0-11 3 0 0 7c0 1 1 2 2 2 2 0 2-1 2-2l0-7 3 0z m-7-2l0 13-3 0 0-12c0-1 0-1 0-1-1 0-1 0-1 0l0-2c1 0 1 0 2 0 2 0 2 0 2 2z m0 14l0 3-3 0 0-3 3 0z m7-8l-3 0c0-1-1-2-2-2-2 0-2 1-2 3 0 3 0 4 2 4 1 0 2-1 2-2l3 0c-1 3-2 4-5 4-3 0-5-2-5-6 0-3 2-5 5-5 3 0 4 2 5 4z m394-81l0 0c0 0 1 0 1 1 2 2 3 3 4 5 2 5 3 8 1 12-2 2-4 4-7 5-1 0-2 1-4 1-5 0-10-1-16-4-7-2-15-6-23-12-24-20-49-43-74-68l-64-71c-29 15-52 24-69 27-10 1-17-1-20-7-3-6-3-11 1-15 19-18 37-37 52-59 2-3 5-7 7-10 12-18 22-35 31-52 2-2 4-3 7-3 2 0 4 1 6 4 5 12 10 24 16 36 11 25 24 49 38 73 13 23 27 42 41 59 10 14 21 27 33 40l39 38m-103-11l0 12-202 0 0-281 281 0 0 224-12 0 0-211-257 0 0 256z"/>
<glyph glyph-name="check-3" unicode="&#50;" d="M5 514l-1 0c0-1-1-1-1-1-1 0-2 1-2 2 0 1 1 1 2 1 0 0 0 0 1-1l1 0c0 2-1 2-2 2-2 0-3-1-3-2 0-2 1-3 3-3 1 0 2 1 2 2z m-2 1l0 1c0 0-1 0-1 0 0 0-1 0-1-1l1 0 0 1-2 0 0-4 2 0 0 2c0 1 0 1 0 1 0 0 0 0 1 0z m1-1c0 1-1 2-2 2-1 0-2-1-2-2 0-1 1-2 2-2 1 0 2 0 2 1l-1 0c-1 0-1 0-1 0-1 0-1 0-1 1l3 0z m-1 1l-2 0c0 0 0 0 1 0 0 0 0 0 0 0z m1-3l0 0c0 1 0 1 0 1l0 2c0 1-1 1-2 1-1 0-2 0-2-1l1 0c0 0 0 0 1 0 0 0 0 0 0 0 0-1 0 0 0 0l-1-1c0 0-1 0-1-1 0-1 1-1 1-1 1 0 1 0 1 0 0 0 0 0 1 0l1 0z m-2 2c0-1 0-1 0-1-1 0-1 0-1 0 0 1 0 1 1 1l0 0c0 0 0 0 0 0z m0-2l0 1c0 0 0 0 0 0 0 0 0 0 0 0l0 2 0 0 0 1 0 0 0 1-2 0 0-1 0 0 0-1 0 0 0-2c0-1 1-1 2-1 0 0 0 0 0 0z m2 0l0 5-1 0 0-2 0 1c0 0-1 0-1 0-1 0-2-1-2-2 0-1 1-2 2-2 0 0 1 0 1 0l0 1 0-1 1 0z m-1 2c0-1-1-1-1-1 0 0-1 0-1 1 0 1 1 1 1 1 0 0 1 0 1-1z m1 0c0 1-1 2-2 2 0 0 0 0-1 0l1-1 0 2-2 0 0-5 2 0 0 1-1-1c1 0 1 0 1 0 1 0 2 1 2 2z m-1 0c0-1 0-1-1-1 0 0 0 0 0 1 0 1 0 1 0 1 1 0 1 0 1-1z m1 2l-1 0-1-3 0 0-1 3-1 0 1-4 0 0c0 0 0 0 0 0 0 0 0 0-1 0l0-1c1-1 1-1 1-1 1 0 1 1 1 1l2 5z m0 0c0 1-1 1-2 1-1 0-2 0-2-1 0-1 0-1 0-1l1 0 0 1c0 0 0 0 1 0 0 0 0 0 0 0 0-1 0-1-1-2-1 0-1-1-1-2l4 0 0 1-2 0c0 0 0 0 1 1 0 0 1 1 1 2z m0-1c0 1-1 2-2 2-2 0-2-1-2-2 0-2 0-3 2-3 1 0 2 1 2 3z m-2 0c0-2 0-2 0-2-1 0-1 0-1 2 0 1 0 1 1 1 0 0 0 0 0-1z m2 1l0 1-4 0 0-1 2 0c0 0 0-1-1-1 0-1 0-2 0-3l1 0c0 2 1 3 2 4z m0-4l0 4-1 0 0-2c0-1-1-1-1-1 0 0 0 0 0 1l0 2-2 0 0-3c0 0 1-1 2-1 0 0 1 0 1 1l0 0 0-1 1 0z m-2 0l0 5-2 0 0-5 2 0z m0 0l0 4-2 0 0-4 2 0z m0 4l0 1-2 0 0-1 2 0z m0-1l0 1 0 0 0 0c0 0 0 0 0 0 0 0 0 0 0 0l0 1c0 0 0 0 0 0-1 0-2 0-2-1l0 0 0 0 0-1 0 0 0-3 2 0 0 3 0 0z m2-1c0 1-1 2-2 2-1 0-2-1-2-2 0-1 1-2 2-2 1 0 2 1 2 2z m-1 0c0-1 0-1-1-1 0 0-1 0-1 1 0 1 1 1 1 1 1 0 1 0 1-1z m3-2l0 3c0 1-1 1-1 1-1 0-1 0-2 0 0 0 0 0-1 0 0 0 0 0-1 0l1-1 0 1-2 0 0-4 2 0 0 2c0 1 0 1 0 1 0 0 0 0 0 0l0-3 2 0 0 2c0 1 0 1 0 1 1 0 1 0 1 0l0-3 1 0z m-2 0l0 3c0 1-1 1-1 1-1 0-1 0-2-1l1 0 0 2-2 0 0-5 2 0 0 2c0 1 0 1 0 1 1 0 1 0 1-1l0-2 1 0z m1 0l0 5-2 0 0-3 1 0-2 3-2 0 0-5 2 0 0 4-1 0 2-4 2 0z m-1 0l0 3c0 0-1 1-1 1-1 0-1 0-2-1l1 0 0 1-2 0 0-4 2 0 0 2c0 1 0 1 0 1 1 0 1 0 1-1l0-2 1 0z m1 4c0 1-1 1-2 1l-3 0 0-5 2 0 0 2 1 0c1 0 2 1 2 2z m-2 0c0-1 0-1 0-1l-1 0 0 1 1 0c0 0 0 0 0 0z m-1-4l0 4-2 0 0-4c0 0 0 0 0 0 0 0 0 0 0 0l0-1c0-1 0-1 1-1 0 0 1 1 1 2z m0 4l0 1-2 0 0-1 2 0z m2-2l-1 0c-1-1-1-1-1-1 0 0-1 0-1 1 0 1 0 1 1 1 0 0 0 0 1-1l1 0c0 1-1 2-2 2-1 0-2-1-2-2 0-1 1-2 2-2 1 0 2 1 2 2z m199-330c16 102 121 274 215 317 15 7 44 21 23 0-103-61-186-266-197-371-6-7-41-32-49-28-29 75-77 179-131 205 43 69 131-90 139-123z"/>
<glyph glyph-name="down" unicode="&#51;" d="M384 128c0 0-128-123-128-123 0 0-128 123-128 123 0 0 83 0 83 0 0 0 0 379 0 379 0 0 90 0 90 0 0 0 0-379 0-379 0 0 83 0 83 0"/>
<glyph glyph-name="blueprint" unicode="&#52;" d="M119 410c6 0 9 3 9 8l0 43 9 0c5 0 8 3 8 8 0 5-3 9-8 9l-9 0 0 25c0 6-3 9-9 9-5 0-8-3-8-9l0-85c0-5 3-8 8-8z m256-299c6 0 9 3 9 8l0 137 26 0c3 0 6 2 8 5 1 4 0 7-2 10l-129 115c-22 19-56 19-78 0l-129-115c-2-3-3-7-2-10 1-2 4-5 7-5l26 0 0-137c0-5 3-8 8-8z m-267 162l112 101c16 13 39 13 55 0l112-101-12 0c-5 0-8-3-8-8l0-137-239 0 0 137c0 5-3 8-9 8z m395-145l-25 0 0 9c0 5-4 8-9 8-5 0-8-3-8-8l0-9-43 0c-5 0-8-3-8-9 0-5 3-8 8-8l85 0c6 0 9 3 9 8 0 6-3 9-9 9z m-409-77l-9 0c-5 0-8-3-8-8 0-5 3-9 8-9l9 0c5 0 8 4 8 9 0 5-3 8-8 8z m43 0l-9 0c-5 0-9-3-9-8 0-5 4-9 9-9l9 0c5 0 8 4 8 9 0 5-3 8-8 8z m42 0l-8 0c-5 0-9-3-9-8 0-5 4-9 9-9l8 0c5 0 9 4 9 9 0 5-4 8-9 8z m43 0l-9 0c-5 0-8-3-8-8 0-5 3-9 8-9l9 0c5 0 8 4 8 9 0 5-3 8-8 8z m43 0l-9 0c-5 0-9-3-9-8 0-5 4-9 9-9l9 0c5 0 8 4 8 9 0 5-3 8-8 8z m42 0l-8 0c-5 0-9-3-9-8 0-5 4-9 9-9l8 0c5 0 9 4 9 9 0 5-4 8-9 8z m43 0l-9 0c-5 0-8-3-8-8 0-5 3-9 8-9l9 0c5 0 8 4 8 9 0 5-3 8-8 8z m43 0l-9 0c-5 0-9-3-9-8 0-5 4-9 9-9l9 0c5 0 8 4 8 9 0 5-3 8-8 8z m42 0l-8 0c-5 0-9-3-9-8 0-5 4-9 9-9l8 0c5 0 9 4 9 9 0 5-4 8-9 8z m68 0l-34 0c-5 0-8-3-8-8l0-34c0-6 3-9 8-9 5 0 9 3 9 9l0 25 25 0c6 0 9 4 9 9 0 5-3 8-9 8z m-76 410l8 0c5 0 9 3 9 8 0 5-4 9-9 9l-8 0c-5 0-9-4-9-9 0-5 4-8 9-8z m-43 0l9 0c5 0 8 3 8 8 0 5-3 9-8 9l-9 0c-5 0-9-4-9-9 0-5 4-8 9-8z m-43 0l9 0c5 0 8 3 8 8 0 5-3 9-8 9l-9 0c-5 0-8-4-8-9 0-5 3-8 8-8z m-42 0l8 0c5 0 9 3 9 8 0 5-4 9-9 9l-8 0c-5 0-9-4-9-9 0-5 4-8 9-8z m-43 0l9 0c5 0 8 3 8 8 0 5-3 9-8 9l-9 0c-5 0-9-4-9-9 0-5 4-8 9-8z m-43 0l9 0c5 0 8 3 8 8 0 5-3 9-8 9l-9 0c-5 0-8-4-8-9 0-5 3-8 8-8z m-42 0l8 0c5 0 9 3 9 8 0 5-4 9-9 9l-8 0c-5 0-9-4-9-9 0-5 4-8 9-8z m-86 0c5 0 9 3 9 8 0 5-4 9-9 9l-8 0c-5 0-9-4-9-9 0-5 4-8 9-8z m384 0l34 0c6 0 9 3 9 8 0 5-3 9-9 9l-25 0 0 25c0 6-4 9-9 9-5 0-8-3-8-9l0-34c0-5 3-8 8-8z m-426 51c-5 0-9-3-9-9l0-25-25 0c-6 0-9-4-9-9 0-5 3-8 9-8l34 0c5 0 8 3 8 8l0 34c0 6-3 9-8 9z m0-77c-5 0-9-3-9-8l0-9c0-5 4-8 9-8 5 0 8 3 8 8l0 9c0 5-3 8-8 8z m0-42c-5 0-9-4-9-9l0-9c0-5 4-8 9-8 5 0 8 3 8 8l0 9c0 5-3 9-8 9z m0-43c-5 0-9-4-9-9l0-8c0-5 4-9 9-9 5 0 8 4 8 9l0 8c0 5-3 9-8 9z m0-43c-5 0-9-3-9-8l0-9c0-5 4-8 9-8 5 0 8 3 8 8l0 9c0 5-3 8-8 8z m0-42c-5 0-9-4-9-9l0-9c0-5 4-8 9-8 5 0 8 3 8 8l0 9c0 5-3 9-8 9z m0-43c-5 0-9-4-9-9l0-8c0-5 4-9 9-9 5 0 8 4 8 9l0 8c0 5-3 9-8 9z m0-43c-5 0-9-3-9-8l0-9c0-5 4-8 9-8 5 0 8 3 8 8l0 9c0 5-3 8-8 8z m0-42c-5 0-9-4-9-9l0-9c0-5 4-8 9-8 5 0 8 3 8 8l0 9c0 5-3 9-8 9z m0-43c-5 0-9-4-9-9l0-8c0-5 4-9 9-9 5 0 8 4 8 9l0 8c0 5-3 9-8 9z m426 324c5 0 9 4 9 9l0 8c0 5-4 9-9 9-5 0-8-4-8-9l0-8c0-5 3-9 8-9z m0-43c5 0 9 4 9 9l0 9c0 5-4 8-9 8-5 0-8-3-8-8l0-9c0-5 3-9 8-9z m0-42c5 0 9 3 9 8l0 9c0 5-4 8-9 8-5 0-8-3-8-8l0-9c0-5 3-8 8-8z m0-43c5 0 9 4 9 9l0 8c0 5-4 9-9 9-5 0-8-4-8-9l0-8c0-5 3-9 8-9z m0-43c5 0 9 4 9 9l0 9c0 5-4 8-9 8-5 0-8-3-8-8l0-9c0-5 3-9 8-9z m0-42c5 0 9 3 9 8l0 9c0 5-4 8-9 8-5 0-8-3-8-8l0-9c0-5 3-8 8-8z m0-43c5 0 9 4 9 9l0 8c0 5-4 9-9 9-5 0-8-4-8-9l0-8c0-5 3-9 8-9z m0-94c5 0 9 4 9 9l0 8c0 5-4 9-9 9-5 0-8-4-8-9l0-8c0-5 3-9 8-9z m-426-17l-34 0c-6 0-9-3-9-8 0-5 3-9 9-9l25 0 0-25c0-6 4-9 9-9 5 0 8 3 8 9l0 34c0 5-3 8-8 8z"/>
<glyph glyph-name="sketch" unicode="&#53;" d="M453 151c-3 1-6 0-8-2l-82-82c-2-2-3-5-2-8 1-3 4-5 7-5l82 0c4 0 8 3 8 8l0 82c0 3-2 6-5 7z m-67-82l57 57 0-57z m121 202c-2 1-6 1-8-1l-22-23 0 153c0 4-4 8-8 8l-58 0 21 21c0 0 0 0 0 0l21 20c4 4 6 10 6 16 0 6-2 12-6 16l-24 23c-4 5-10 7-16 7-6 0-12-2-16-7l-97-96-233 0 0 74c0 4-4 7-8 7-32 0-59-26-59-59l0-319c0 0 0-1 0-2 1-13 7-26 17-36 11-10 25-16 40-16l230 0-44-43c-2-3-2-6-1-9 1-2 4-4 7-4l255 0c5 0 8 3 8 7l0 256c0 3-2 6-5 7z m-100 223c4 3 9 3 12 0l23-24c3-3 3-8 0-11l-15-15-34 35z m-25-26l34-34-13-14-35 35z m115-288l-14 0c-4 0-7-4-7-8 0-4 3-7 7-7l14 0 0-23-14 0c-4 0-7-3-7-7 0-5 3-8 7-8l14 0 0-23-14 0c-4 0-7-3-7-7 0-4 3-8 7-8l14 0 0-22-14 0c-4 0-7-4-7-8 0-4 3-7 7-7l14 0 0-36-230 0 76 76c3 3 3 7 0 10-1 1-1 1-1 1-3 2-7 2-10-1l-30-30-245 0c-23 0-41 18-42 40 0 2 0 3 0 5 0 0 0 0 0 0 0 0 1 1 1 2 0 0 0 0 0 0 0 1 0 1 0 2 0 0 0 0 0 0 0 1 0 1 1 2 0 0 0 0 0 0 0 1 0 1 0 2 0 0 0 0 1 1 0 0 0 0 0 0 0 1 0 1 0 2 0 0 0 0 1 0 0 1 0 2 0 2 0 0 0 0 0 0 6 12 18 21 31 24 0 0 0 0 0 0 1 0 2 1 2 1 0 0 0 0 0 0 1 0 2 0 2 0 0 0 1 0 1 0 0 0 1 0 1 0 1 0 1 0 1 0 1 0 1 0 2 0 4 0 8 4 8 8l0 54c0 4-4 8-8 8-4 0-7-4-7-8l0-47c-13-2-25-8-34-17-1-1-2-2-3-3l0 280c0 22 16 40 37 44l0-227c0-4 3-7 7-7 4 0 8 3 8 7l0 146 218 0-42-42c-3-3-3-8 0-11 3-3 8-3 11 0l54 55c0 0 0 0 0 0l50 49 34-35-4-4c0 0 0 0 0 0l-152-151-34 34 30 30c3 3 3 8 0 11-3 3-8 3-11 0l-35-35c0-1 0-1-1-1 0 0 0 0 0 0 0 0 0 0 0-1 0 0 0 0 0 0 0 0 0 0 0 0 0 0 0 0-1-1 0 0 0 0 0 0 0 0 0 0 0 0l-14-42-10-28c-1 0-1-1-1-1l-25 0c-4 0-7-3-7-8 0-4 3-7 7-7l208 0c5 0 8 3 8 7 0 5-3 8-8 8l-149 0 46 16c0 0 0 0 0 0 0 0 0 0 1 0 0 0 0 0 0 0 0 1 0 1 0 1 0 0 0 0 0 0 1 0 1 0 1 0 0 0 0 0 0 0 0 0 1 1 1 1l154 155 66 0 0-161-108-108c-3-2-3-7 0-10 0 0 1-1 1-1 1-1 3-1 4-1 2 0 4 0 5 1 0 0 1 1 1 1 0 0 0 0 0 0l132 132z m-274 66l-22-7-14 14 7 22z"/>
<glyph glyph-name="facebook" unicode="&#54;" d="M254 512c-140 0-254-114-254-254 0-140 114-254 254-254 140 0 254 114 254 254 0 140-114 254-254 254z m63-263l-41 0c0-66 0-148 0-148l-61 0c0 0 0 81 0 148l-29 0 0 52 29 0 0 34c0 24 11 61 62 61l45 0 0-50c0 0-28 0-33 0-5 0-13-3-13-14l0-31 47 0z"/>
<glyph glyph-name="instagram" unicode="&#55;" d="M254 207c28 0 51 23 51 51 0 11-4 21-10 29-9 13-24 22-41 22-17 0-32-9-41-22-6-8-10-18-10-29 0-28 23-51 51-51z m111 113l0 49-6 0-43 0 0-49z m-111 192c-140 0-254-114-254-254 0-140 114-254 254-254 140 0 254 114 254 254 0 140-114 254-254 254z m145-225l0-118c0-31-25-56-56-56l-177 0c-31 0-56 25-56 56l0 177c0 31 25 56 56 56l177 0c31 0 56-25 56-56z m-66-29c0-44-35-79-79-79-43 0-79 35-79 79 0 10 2 20 6 29l-43 0 0-118c0-15 12-28 28-28l177 0c15 0 28 13 28 28l0 118-44 0c4-9 6-19 6-29z"/>
<glyph glyph-name="right-arrow" unicode="&#56;" d="M345 431c-7 7-19 7-26 0-7-7-7-19 0-26l131-131-432 0c-10 0-18-8-18-18 0-10 8-18 18-18l432 0-131-131c-7-7-7-19 0-26 7-7 19-7 26 0l162 162c7 7 7 19 0 26z"/>
<glyph glyph-name="angle-left" unicode="&#57;" d="M344 357c0-3-1-5-3-7l-112-112 112-113c2-1 3-4 3-6 0-3-1-5-3-7l-14-14c-2-2-5-3-7-3-2 0-5 1-7 3l-133 133c-2 2-3 4-3 7 0 2 1 4 3 6l133 133c2 2 5 3 7 3 2 0 5-1 7-3l14-14c2-2 3-4 3-6z"/>
<glyph glyph-name="angle-right" unicode="&#33;" d="M335 238c0-3-1-5-3-7l-133-133c-2-2-5-3-7-3-2 0-5 1-7 3l-14 14c-2 2-3 4-3 7 0 2 1 5 3 6l112 113-112 112c-2 2-3 4-3 7 0 2 1 4 3 6l14 14c2 2 5 3 7 3 2 0 5-1 7-3l133-133c2-2 3-4 3-6z"/>
<glyph glyph-name="square-measument" unicode="&#34;" d="M365 391l-340 0c-14 0-25-11-25-25l0-340c0-14 11-25 25-25l340 0c14 0 25 11 25 25l0 340c0 14-11 25-25 25z m-26-339l-288 0 0 288 288 0z m168 31l-28 0 0 297 28 0c2 0 4 1 5 3 0 2 0 4-1 6l-45 44c-2 2-5 2-7 0l-45-44c-1-2-2-4-1-6 1-2 3-3 5-3l27 0 0-297-27 0c-2 0-4-1-5-3-1-2 0-4 1-6l45-44c2-2 5-2 7 0l45 44c1 2 1 4 1 6-1 2-3 3-5 3z m-433 330c1-1 3-1 5-1 2 1 3 3 3 5l0 28 297 0 0-28c0-2 2-4 4-5 1 0 4 0 5 1l45 45c2 2 2 5 0 7l-45 45c-1 1-4 2-5 1-2-1-4-3-4-5l0-27-297 0 0 27c0 2-1 4-3 5-2 1-4 0-5-1l-45-45c-2-2-2-5 0-7z"/>
</font>
</defs>
</svg>
